<?xml version="1.0" encoding="utf-8"?>
<!-- Generator: Adobe Illustrator 19.0.0, SVG Export Plug-In . SVG Version: 6.00 Build 0)  -->
<svg version="1.1" id="Layer_1" xmlns="http://www.w3.org/2000/svg" xmlns:xlink="http://www.w3.org/1999/xlink" x="0px" y="0px"
	 viewBox="-58 260 495 274" style="enable-background:new -58 260 495 274;" xml:space="preserve">
<style type="text/css">
	.st0{fill:#DAEAFC;}
	.st1{fill:#D22027;}
	.st2{fill:#B41F24;}
	.st3{fill:#9B3B21;}
	.st4{fill:#EBEFF0;}
	.st5{fill:#FFFFFF;}
	.st6{fill:#842E1A;}
	.st7{fill:#054A4A;}
	.st8{fill:#F2CD1A;}
	.st9{fill:#08172E;}
	.st10{fill:#D1B18D;}
	.st11{fill:#EDCFB1;}
	.st12{fill:#1992AF;}
	.st13{fill:#161E21;}
	.st14{fill:#F3725C;}
	.st15{fill:#BABB33;}
	.st16{fill:#959335;}
	.st17{fill:#719F40;}
	.st18{fill:#4F6D32;}
	.st19{fill:#C88A2B;}
	.st20{fill:#5F210E;}
	.st21{fill:#015871;}
	.st22{fill:#034949;}
	.st23{fill:#13615A;}
	.st24{fill:#18817C;}
</style>
<title>Artboard 1</title>
<rect id="XMLID_27_" x="-58" y="260" class="st0" width="495" height="274"/>
<g id="XMLID_74_">
	<g id="XMLID_77_">
		<g id="XMLID_78_">
			<g id="XMLID_173_">
				<path id="XMLID_73_" class="st1" d="M159.1,313.7l-5.5,2.6c0,0-7.2-1.3-12.2-5.8c0.5-0.4,1-0.8,1.4-1.2c0.5-0.6,1-0.3,0.2-0.9
					c-0.6-0.5-2.3-0.5-3.9-0.4c-1.8-2.5-2.9-5.7-2.4-9.7c0,0,3.8,0.2,7.9,2.8c0.4,0.3,1,0.5,1.5,1l0,0c0.2,1.2,0.5,2.3,0.9,3.1
					c0.2-0.6,0.4-1.1,0.7-1.7C152.6,307.3,159.1,313.7,159.1,313.7z"/>
				<path id="XMLID_72_" class="st2" d="M137.9,299.9c0,0,14.2,15.9,22,17L137.9,299.9z"/>
			</g>
			<g id="XMLID_171_">
				<path id="XMLID_71_" class="st3" d="M180.3,370.8c-58.1-1.6-51.4,32-51.4,32l49,0.2v0l2.5,0l2.5,0v0l48.9-0.2
					C231.7,402.8,238.4,369.2,180.3,370.8z"/>
			</g>
			<g id="XMLID_168_">
				<circle id="XMLID_70_" class="st4" cx="110.8" cy="383.9" r="7.5"/>
				<path id="XMLID_69_" class="st5" d="M109,379c0.3,0.3,0,1.2-0.8,2.1c-0.7,0.9-1.6,1.4-2,1.1c-0.3-0.3,0-1.2,0.8-2.1
					C107.8,379.2,108.7,378.7,109,379z"/>
			</g>
			<g id="XMLID_165_">
				<path id="XMLID_68_" class="st4" d="M122.3,366.1c0,2.4-1.8,4.3-4.1,4.3s-4.1-1.9-4.1-4.3s1.8-4.3,4.1-4.3
					C120.5,361.7,122.3,363.7,122.3,366.1z"/>
				<path id="XMLID_67_" class="st5" d="M117.2,363.2c0.2,0.2,0,0.7-0.4,1.2s-0.9,0.8-1.1,0.6s0-0.7,0.4-1.2
					C116.6,363.4,117,363.1,117.2,363.2z"/>
			</g>
			<g id="XMLID_162_">
				<ellipse id="XMLID_66_" class="st4" cx="235" cy="380.3" rx="5.3" ry="5.6"/>
				<path id="XMLID_65_" class="st5" d="M233.8,376.6c0.2,0.2,0,0.9-0.5,1.6c-0.5,0.7-1.2,1-1.4,0.8c-0.2-0.2,0-0.9,0.5-1.6
					C232.9,376.8,233.5,376.4,233.8,376.6z"/>
			</g>
			<g id="XMLID_79_">
				<g id="XMLID_82_">
					<path id="XMLID_64_" class="st6" d="M143.9,386.4c0.1-0.7,11-7.9,16.5-7.5c0,0,1.6,11.7,4.1,9.8c2.5-1.8,7.8-9.6,7.8-9.6
						s11.3,14.6,13.7,12.1l4.1-11.5c0,0,17.6,12.8,18.1,10.7c0.5-2.1-12.8-18.5-15.3-18.7c-2.5-0.2-12.5-2.3-15.4-2.5
						c-2.9-0.2-6.4-3.3-10.7-2.1c-4.3,1.2-9,1.4-11.5,2.7C153.1,371.2,143.9,386.4,143.9,386.4z"/>
					<g id="XMLID_83_">
						<path id="XMLID_63_" class="st7" d="M221.5,388.5c-0.4,0.7-0.7,1.2-1.1,1.6c-3.1,3.2-6.6-2.6-9.9-5c0.8,1.9,1,5.1,0.8,6.4
							c-0.6,3.8-4.9-0.6-6.4-2.1c-5.5-5.4-9.1-11.8-17.2-12.3c1.3,4.1,3.5,15.1-0.9,15.9c-7,1.3-8.3-11.7-12.9-15.3
							c-2.7-2.2-3.3-2.8-4.4,1.1c-0.9,3.1-2.2,8.5-5.1,10.1c-2.8,1.6-4.3-1.2-4.5-4c-0.2-2.8,1.3-5,1.3-7.5V377
							c-3.3-0.8-8.6,1.9-11.8,4.4c-2.2,1.7-4.1,3.8-5.9,5.9c-1,1.1-2.8,4.1-4.4,3.8c-0.6-0.1-1.1-0.4-1.4-0.8
							c-2.3-2.8,2-11.9,3-13.7c2.1-3.9,5-8.2,8.5-11.1c1.5-5.9,0.3-12.3,1.2-18.4c0.8-5.6,3.1-11.1,5.9-15.8
							c5.5-9.1,15.1-11.5,24.4-10.1c13.3,2,16.9,14.5,18.5,27.5c0.4,3.7,0.5,8.9,2.3,12.2c2.2,4.1,7.8,4.1,11.3,6.2
							C218.4,370.7,225.5,381,221.5,388.5z"/>
						<path id="XMLID_62_" class="st7" d="M163,359.6c-3-2.8-7.5,0.2-10.8,0.3c-3.4,0.1-6.5-1.3-9.5-2.9c-3-1.6-3.8-2.7-6.2-4.8
							c-2.5-2.2-5.2-1.3-6.4,2c-1.7,4.6,1,9.5,3.5,13.1c2.4,3.5,4.9,5.1,8.2,7.4c1.5,1,4.7,3.1,4,5.2l12.7-5.9
							c1.5-1.1,3-2.1,4.2-3.5C165.2,367.6,166.2,362.7,163,359.6z"/>
						<g id="XMLID_153_">
							<path id="XMLID_61_" class="st4" d="M143.7,356.4c-0.4-2.2-3.1-2.7-4.6-3.5l-9.3,8.8c1.1,1.4,1.9,6.9,4.2,7.9
								c3.5,1.4,1-4.1,0.2-5.7c3.8,4.8,4.4,2.3,3.1-2.7c2.6,3.4,5.3-1,2.9-4.1C141.8,358.4,144.3,359.4,143.7,356.4z"/>
							<g id="XMLID_154_">
								<g id="XMLID_156_">
									<path id="XMLID_60_" class="st8" d="M129.8,353.7c0,0-0.4-0.8-1-1.9c-0.7-1.2-1.5-2.8-2.1-4c-0.5-0.9-0.8-1.5-0.8-1.6
										c0-0.1,3.4-1.2,3.7-1.4c0.8-0.5,1.6-1.1,2.1-1.8c0.4-0.7,0.5-1.5,0.2-2.5c-0.2-0.5-0.4-1-0.8-1.3c-0.4-0.5-1-0.9-1.5-1.1
										c-0.3-0.1-0.6-0.1-0.9-0.1c-0.9,0-1.7,0.3-2.6,0.9c-1.2,0.9-2.2,2.4-3,4.7c0.3-1-0.6-1.5,0.2-3.9c0.2-0.8,0.5-1.5,1-2.1
										c0.4-0.5,0.8-0.9,1.3-1.2c0.9-0.6,1.9-0.9,3-0.9c0.5,0,1,0.1,1.5,0.3c1.7,0.6,3.1,2,3.8,3.8c0.1,0.4,0.2,0.8,0.3,1.1
										c0.2,1.3,0.1,2.6-0.5,3.6c0,0,0,0,0,0.1c-0.7,1.3-2,1.9-3,2.3c-0.2,0.1-0.9,0.3-1.5,0.5c0.2,0.3,0.4,0.7,0.6,1.1
										c0.6,1.1,1.2,2.2,1.6,3c0.3,0.6,0.6,1.1,0.6,1.1L129.8,353.7z"/>
								</g>
								<path id="XMLID_59_" class="st9" d="M130.9,364l9.5-10.6c0,0-6.6-6.8-11.1-1.8C129.3,351.7,125.1,357.9,130.9,364z"/>
							</g>
						</g>
						<g id="XMLID_142_">
							<path id="XMLID_58_" class="st10" d="M161.7,376.7c-0.1,0.2-0.2,0.3-0.3,0.5c0-0.1,0-0.1,0-0.2c-3.8-0.8-8.7,1.9-11.8,4.4
								c-2.2,1.7-4.1,3.8-5.9,5.9c-1,1.1-2.8,4.1-4.4,3.8c-0.6-0.1-1.1-0.4-1.4-0.8c0.7-3,1.8-5.8,3.8-8.7c2.6-3.7,5.9-7.4,9.8-9.4
								C153.8,371,164.3,370.5,161.7,376.7z"/>
							<path id="XMLID_57_" class="st11" d="M159.5,372.9c0,1.1-0.9,2-2,2c-1.1,0-2-0.9-2-2c0-1.1,0.9-2,2-2
								C158.6,370.9,159.5,371.8,159.5,372.9z"/>
							<path id="XMLID_56_" class="st11" d="M152.5,373.7c0,1.1-0.9,2-2,2c-1.1,0-2-0.9-2-2c0-1.1,0.9-2,2-2
								C151.6,371.7,152.5,372.6,152.5,373.7z"/>
							<circle id="XMLID_55_" class="st11" cx="145.6" cy="377.4" r="2"/>
							<path id="XMLID_54_" class="st11" d="M143,381.9c0,0.8-0.7,1.5-1.5,1.5s-1.5-0.7-1.5-1.5s0.7-1.5,1.5-1.5
								C142.3,380.4,143,381.1,143,381.9z"/>
							<path id="XMLID_53_" class="st11" d="M140.6,386.8c0,0.7-0.5,1.2-1.2,1.2c-0.7,0-1.2-0.5-1.2-1.2s0.5-1.2,1.2-1.2
								C140.1,385.6,140.6,386.2,140.6,386.8z"/>
							<path id="XMLID_52_" class="st11" d="M145.1,386.4c0,0.7-0.5,1.2-1.2,1.2c-0.7,0-1.2-0.5-1.2-1.2s0.5-1.2,1.2-1.2
								C144.6,385.2,145.1,385.7,145.1,386.4z"/>
							<path id="XMLID_51_" class="st11" d="M148.8,383.1c0,0.7-0.5,1.2-1.2,1.2c-0.7,0-1.2-0.5-1.2-1.2c0-0.7,0.5-1.2,1.2-1.2
								C148.3,381.9,148.8,382.5,148.8,383.1z"/>
							<path id="XMLID_50_" class="st11" d="M153.8,379.9c0,0.7-0.5,1.2-1.2,1.2c-0.7,0-1.2-0.5-1.2-1.2s0.5-1.2,1.2-1.2
								C153.2,378.6,153.8,379.2,153.8,379.9z"/>
							<path id="XMLID_49_" class="st11" d="M159.1,377.4c0,0.7-0.5,1.2-1.2,1.2c-0.7,0-1.2-0.5-1.2-1.2s0.5-1.2,1.2-1.2
								C158.5,376.2,159.1,376.7,159.1,377.4z"/>
						</g>
						<g id="XMLID_133_">
							<path id="XMLID_48_" class="st10" d="M220.4,390.1c-3.1,3.2-6.6-2.6-9.9-5c-0.2-0.3-7.6-9.9-7.6-9.9S220.8,374.7,220.4,390.1
								z"/>
							<g id="XMLID_134_">
								<path id="XMLID_47_" class="st11" d="M209.5,375.7c0,1.1-0.9,2-2,2c-1.1,0-2-0.9-2-2c0-1.1,0.9-2,2-2
									C208.6,373.7,209.5,374.6,209.5,375.7z"/>
								<circle id="XMLID_46_" class="st11" cx="212.7" cy="377.8" r="1.9"/>
								<path id="XMLID_45_" class="st11" d="M218.7,381.4c0,1-0.8,1.9-1.9,1.9c-1,0-1.9-0.8-1.9-1.9s0.8-1.9,1.9-1.9
									S218.7,380.4,218.7,381.4z"/>
								<path id="XMLID_44_" class="st11" d="M221,386.4c0,0.9-0.7,1.6-1.6,1.6c-0.9,0-1.6-0.7-1.6-1.6c0-0.9,0.7-1.6,1.6-1.6
									C220.3,384.8,221,385.5,221,386.4z"/>
								<circle id="XMLID_43_" class="st11" cx="214.9" cy="388.1" r="1.6"/>
								<path id="XMLID_42_" class="st11" d="M212.3,384.7c0,0.9-0.7,1.6-1.6,1.6c-0.9,0-1.6-0.7-1.6-1.6c0-0.9,0.7-1.6,1.6-1.6
									C211.6,383,212.3,383.8,212.3,384.7z"/>
							</g>
						</g>
						<g id="XMLID_121_">
							<g id="XMLID_126_">
								<path id="XMLID_41_" class="st5" d="M178.5,345.6c0.1,3.9,2.7,6.8,5.6,6.7s5.2-3.4,5.1-7.2c-0.1-3.9-2.7-6.8-5.6-6.7
									C180.6,338.5,178.3,341.7,178.5,345.6z"/>
								<g id="XMLID_127_">
									<path id="XMLID_40_" class="st12" d="M180.7,346.3c0.1,2.6,1.6,4.6,3.4,4.6c1.8-0.1,3.1-2.3,3-4.9
										c-0.1-2.6-1.6-4.6-3.4-4.6S180.6,343.7,180.7,346.3z"/>
									<path id="XMLID_39_" class="st13" d="M181.4,346.3c0.1,2,1.3,3.6,2.7,3.6c1.4-0.1,2.4-1.8,2.4-3.8c-0.1-2-1.3-3.6-2.7-3.6
										C182.3,342.5,181.3,344.2,181.4,346.3z"/>
									<ellipse id="XMLID_38_" class="st5" cx="186.2" cy="344.1" rx="1.3" ry="1.5"/>
									<ellipse id="XMLID_37_" class="st5" cx="181.1" cy="349.3" rx="1" ry="1.1"/>
								</g>
							</g>
							<path id="XMLID_36_" class="st5" d="M179.6,354.1c0,0-7.8,1.3-10.5-2.1C169.1,352,173.4,365.4,179.6,354.1z"/>
							<ellipse id="XMLID_35_" class="st14" cx="188.1" cy="353.1" rx="4.6" ry="2.2"/>
							<path id="XMLID_34_" class="st14" d="M165.1,353c0,1.2-2.1,2.2-4.6,2.2c-2.6,0-4.6-1-4.6-2.2c0-1.2,2.1-2.2,4.6-2.2
								C163,350.8,165.1,351.8,165.1,353z"/>
							<path id="XMLID_33_" class="st9" d="M197.8,338.2l-1-4L149.6,346l-0.1,3l9.3-2c0.9,3.5,4.3,6.9,7.8,6.2
								c3.6-0.7,6-5.5,5.6-9.2L197.8,338.2z"/>
						</g>
						<g id="XMLID_84_">
							<g id="XMLID_104_">
								<path id="XMLID_32_" class="st15" d="M196.8,335.2c-3.7,0.5-8.4,1.2-13.4,2c-0.9,0.1-1.9,0.3-2.9,0.4
									c-3.6,0.5-7.3,1.1-10.8,1.6c-0.8,0.1-1.6,0.2-2.4,0.4c-4.4,0.7-8.4,1.3-11.4,1.7c-1.1,0.2-2,0.3-2.8,0.4
									c-1.7,0.3-2.7,0.4-2.7,0.4c0.4-1.6,1.6-6.5,2.3-7.9c0.2-0.5,0.4-0.9,0.7-1.4c0.1-0.1,0.1-0.3,0.2-0.4c0,0,0,0,0-0.1
									c0.1-0.1,0.1-0.3,0.2-0.4c0,0,0-0.1,0-0.1c0.1-0.1,0.1-0.3,0.2-0.4c0.2-0.3,0.3-0.6,0.5-0.9c0.1-0.1,0.2-0.3,0.3-0.4
									c0.1-0.2,0.2-0.4,0.4-0.5c0.1-0.2,0.2-0.3,0.4-0.5c0.1-0.2,0.2-0.3,0.4-0.5c0.5-0.7,1-1.3,1.4-1.8c0.1-0.1,0.2-0.3,0.3-0.4
									c0.5-0.5,0.9-1,1.3-1.4c0.1-0.1,0.2-0.1,0.2-0.2c0,0,0.1-0.1,0.2-0.2c0,0,0,0,0,0c0.1-0.1,0.3-0.3,0.4-0.4
									c0.3-0.2,0.5-0.5,0.7-0.7c0.1-0.1,0.2-0.1,0.2-0.2c0.7-0.6,1.1-0.9,1.1-0.9c0,0,0.1,0,0.1,0c0,0,0.1,0,0.1,0l0,0
									c0.8-0.7,1.6-1.5,2.4-1.6l0,0c0,0,0,0,0,0c0.7-0.4,1.4-0.8,2.1-1.2l0,0c0,0,0-0.1,0-0.1v0c1-0.4,1.9-0.8,2.8-1.2l0,0l0,0
									c3.1-1.2,6-1.2,8.6-1.2l0,0c1.1,0.5,2.1,0.5,3.1,0.8l0,0c0.8,0.3,1.5,0.4,2.2,0.7c0.5,0.2,1,0.4,1.4,0.7
									c4.4,2.4,7.6,6.2,9.4,8.9c0,0,0,0,0,0c0.5,0.7,0.9,1.9,1.3,3.2c0.1,0.4,0.2,0.8,0.3,1.2c0,0,0,0,0,0c0,0,0,0,0,0
									c0.1,0.5,0.2,0.9,0.3,1.3c0.1,0.3,0.1,0.5,0.2,0.7C196.8,334.9,196.8,335.2,196.8,335.2z"/>
								<path id="XMLID_31_" class="st16" d="M208.3,327.5c0,0-1.3,4.7-7.6,5.3c-1.1,0.1-2.4,0.1-3.8-0.2c-0.2,0-0.5-0.1-0.8-0.1
									c0,0,0,0,0,0s0,0,0,0c0,0,0,0,0,0c0-0.1,0.2-0.3,0.5-0.7C197.8,330.3,201.2,327.1,208.3,327.5z"/>
								<path id="XMLID_30_" class="st15" d="M195.5,333c0,0,3-4.2,12.8,5.4C208.3,338.4,204.6,345.5,195.5,333z"/>
								<g id="XMLID_106_">
									<circle id="XMLID_29_" class="st5" cx="180.3" cy="329" r="1.5"/>
									<circle id="XMLID_28_" class="st5" cx="173.7" cy="334.4" r="1.5"/>
									<circle id="XMLID_12_" class="st5" cx="167.1" cy="331.9" r="1.5"/>
									<circle id="XMLID_26_" class="st5" cx="160.2" cy="336.8" r="1.5"/>
									<path id="XMLID_25_" class="st5" d="M156,340.9c0,0.1,0,0.2,0,0.3c-1.1,0.2-2,0.3-2.8,0.4c-0.1-0.2-0.2-0.5-0.2-0.8
										c0-0.9,0.7-1.5,1.5-1.5C155.3,339.4,156,340.1,156,340.9z"/>
									<path id="XMLID_24_" class="st5" d="M169.9,338.5c0,0.3-0.1,0.5-0.2,0.7c-0.8,0.1-1.6,0.2-2.4,0.4
										c-0.3-0.3-0.4-0.7-0.4-1.1c0-0.9,0.7-1.5,1.5-1.5C169.2,336.9,169.9,337.6,169.9,338.5z"/>
									<path id="XMLID_23_" class="st5" d="M183.4,336.8c0,0.1,0,0.2,0,0.3c-0.9,0.1-1.9,0.3-2.9,0.4c-0.1-0.2-0.2-0.5-0.2-0.7
										c0-0.9,0.7-1.5,1.5-1.5C182.7,335.3,183.4,336,183.4,336.8z"/>
									<circle id="XMLID_22_" class="st5" cx="154" cy="335.2" r="1.5"/>
									<circle id="XMLID_21_" class="st5" cx="186.4" cy="333.6" r="1.5"/>
									<circle id="XMLID_20_" class="st5" cx="191.7" cy="328.6" r="1.5"/>
									<path id="XMLID_19_" class="st5" d="M196.5,333.8c-0.1,0.1-0.1,0.1-0.2,0.2c-0.2,0.2-0.5,0.2-0.8,0.2
										c-0.9,0-1.5-0.7-1.5-1.5c0-0.9,0.7-1.5,1.5-1.5c0.1,0,0.3,0,0.4,0c0.1,0.4,0.2,0.8,0.3,1.2c0,0,0,0,0,0c0,0,0,0,0,0
										C196.3,333,196.4,333.4,196.5,333.8z"/>
								</g>
								<path id="XMLID_18_" class="st16" d="M194.5,328.1c-14.5,0.3-35.7,4.8-41.9,6.2c3.5-7.6,9.5-12,9.5-12c0,0,0.1,0,0.1-0.1
									c1-0.4,1.6-0.7,1.7-0.8c0.6-0.2,17.5-2,21.1-2.2C189.5,321.6,192.7,325.4,194.5,328.1z"/>
							</g>
							<g id="XMLID_85_">
								<path id="XMLID_17_" class="st17" d="M134.2,318.8c0,0-2.8,1.8,2.5,2.3c5.3,0.5,21.5,4.4,22.6,0.9c1.1-3.5-1.7-5.9-1.7-5.9
									S139.8,312.3,134.2,318.8L134.2,318.8z"/>
								<path id="XMLID_16_" class="st18" d="M136.6,318.4c0,0,19.2-0.8,24.8,2.2l0.6,1C162,321.6,156.2,318.7,136.6,318.4z"/>
								<path id="XMLID_15_" class="st9" d="M197.6,324.2l-0.9,3.9c-0.6,0-1.2,0-1.8,0c-8.5,0-17.3,0-25.7,1.1
									c-3.8,0.5-7.4,1.6-11.1,2.6c-1.2,0.3-2.8,0.9-4.3,1.1c-0.4,0-0.9,0-1.3,0c-1.3-0.3-2.3-5.3-2.6-6.1c-0.2-0.7-0.3-1.3-0.4-2
									c0.5-0.1,1.1-0.2,1.7-0.3c1.2-0.3,2.6-0.7,3.1-1.5c-1-0.9-2-1.6-3.1-2.2c-0.6-0.3-1.2-0.6-1.8-0.8c0.3-2.5,1.1-4.9,2.6-7
									c4.6-6.8,11.6-11.2,19.4-14c0,0,20.1,0.8,25,17.4c-0.8,0.6-1.5,1.2-2.1,1.7c-1.4,1.2-2.5,2-2.5,2s1.2,0,2.8-0.1
									c0.7,0,1.6,0,2.5-0.1C197.4,321.2,197.5,322.6,197.6,324.2z"/>
								<g id="XMLID_87_">
									<path id="XMLID_7_" class="st19" d="M151.3,324.3c0.3,3.8,1.7,6.9,2.5,8.5c-0.4,0-0.9,0-1.3,0c-1.3-0.3-2.3-5.3-2.6-6.1
										c-0.2-0.7-0.3-1.3-0.4-2C150,324.6,150.6,324.5,151.3,324.3z"/>
									<path id="XMLID_6_" class="st19" d="M196.4,316.3c-0.8,0.6-1.5,1.2-2.1,1.7c-1.2-4.9-3.7-8.4-6.5-11
										c-2.7-2.4-5.9-4-8.6-4.9c-3.9-1.4-7.1-1.6-7.1-1.6s-11.8,2.8-18.1,12.6c-1.6,2.6-2.4,5.1-2.7,7.6c-0.6-0.3-1.2-0.6-1.8-0.8
										c0.3-2.5,1.1-4.9,2.6-7c4.6-6.8,11.6-11.2,19.4-14c0,0,3.9,0.1,8.6,1.7c2.9,1,6.1,2.4,9,4.7
										C192.3,307.8,195,311.4,196.4,316.3z"/>
									<path id="XMLID_5_" class="st19" d="M197.6,324.2l-0.9,3.9c-0.6,0-1.2,0-1.8,0c0.3-3.1,0.2-5.8-0.2-8.2
										c0.7,0,1.6,0,2.5-0.1C197.4,321.2,197.5,322.6,197.6,324.2z"/>
								</g>
								<path id="XMLID_4_" class="st8" d="M189.1,305.3l-1.3,1.6c-2.7-2.4-5.9-4-8.6-4.9l0.9-1.5C183,301.5,186.2,303,189.1,305.3z
									"/>
							</g>
						</g>
					</g>
				</g>
				<g id="XMLID_80_">
					<path id="XMLID_3_" class="st5" d="M133.8,340.3c-0.3,1.4-0.6,2.2-1.6,2.4c1.4,0.1,1.4,1.4,1.7,2.5c0-1,0.2-2.2,1.2-2.7
						C134.2,342.3,134.1,341.5,133.8,340.3z"/>
				</g>
			</g>
		</g>
	</g>
	<ellipse id="XMLID_2_" class="st3" cx="180.3" cy="401.9" rx="51.6" ry="9.2"/>
	<path id="XMLID_1_" class="st20" d="M227.7,391.5c0-0.7,1-0.9,1.4-0.3c0.5,0.8,1.1,1.8,1.3,3.1c0.4,2.5,0.5,6.8,0.5,8.1
		c0,0.2-0.1,0.5-0.3,0.6c-0.9,0.6-3.7,2.3-8.5,3c-1.5,0.2-3,0.4-4.4,0.6c-0.9,0.1-1.2-1.1-0.4-1.4c3.9-1.6,8.1-3.7,8.9-5.9
		C227.2,396.4,227.6,393.4,227.7,391.5z"/>
</g>
<path class="st21" d="M-60.4,410.6H188c-27.7,0-49.8,5.9-103.3,2c-57.1-4.2-71.5,8.7-99.7,9.5C-33.5,422.6-42.6,410.5-60.4,410.6
	L-60.4,410.6z"/>
<path class="st21" d="M139.6,410.2H437c-33.2,0-59.6,7.1-123.7,2.4c-68.3-5-85.5,2.3-119.2,3.3C171.9,416.5,160.8,410.2,139.6,410.2
	L139.6,410.2z"/>
<g>
	<g id="XMLID_113_">
		<path class="st5" d="M172.2,305.3c0.4-0.1,0.8,0,1.1,0c2.2,0.1,4.1,0.9,5.8,2.2c1.6,1.3,2.8,3,3.4,5c0.6,2.2,0.5,4.3-0.3,6.5
			c0,0.1,0,0.1-0.1,0.2c-0.2,0.4-0.7,0.6-1.1,0.4c-0.4-0.2-0.6-0.6-0.5-1.1c0.2-0.5,0.4-1.1,0.5-1.6c0.6-3-0.6-6.1-3-8
			c-1.4-1.1-2.9-1.7-4.6-1.9c-2.9-0.2-5.3,0.8-7.2,3c-1.2,1.4-1.8,3-1.9,4.9c-0.1,1.9,0.4,3.6,1.4,5.1c0.1,0.1,0.1,0.1,0.2,0.2
			c0.2,0.4,0.2,0.9-0.2,1.2c-0.4,0.3-0.9,0.2-1.2-0.2c-0.1-0.1-0.2-0.3-0.3-0.4c-0.6-1-1.1-2-1.3-3.1c-0.7-3.1-0.1-6,1.9-8.6
			c1.3-1.7,3-2.8,5-3.4c0.4-0.1,0.8-0.2,1.2-0.3c0.1,0,0.2,0,0.3-0.1c0.2,0,0.5-0.1,0.7-0.1C172,305.4,172.1,305.3,172.2,305.3z"/>
	</g>
	<g id="XMLID_11_">
		<g id="XMLID_109_">
			<rect x="169" y="322.8" transform="matrix(0.993 -0.1177 0.1177 0.993 -36.8409 22.6565)" class="st5" width="8.8" height="1"/>
		</g>
		<g id="XMLID_108_">
			<circle class="st5" cx="167.8" cy="323.7" r="2.6"/>
		</g>
		<g id="XMLID_107_">
			<circle class="st9" cx="167.8" cy="323.7" r="1.4"/>
		</g>
		<g id="XMLID_13_">
			<circle class="st5" cx="179.3" cy="322.5" r="2.6"/>
		</g>
		<g id="XMLID_105_">
			<circle class="st9" cx="179.3" cy="322.5" r="1.4"/>
		</g>
	</g>
	<g id="XMLID_103_">
		<path class="st22" d="M179.2,313.3c-0.1,0.1-0.2,0.2-0.3,0.3c-0.2,0.1-0.4,0.2-0.7,0.2c-0.2,0-0.3,0-0.5,0
			c-0.1,0.4-0.2,0.7-0.5,0.9c-0.2,0.2-0.5,0.2-0.7,0.3c-0.4,0-0.7,0-0.7,0l0,0c0,0,0,0,0,0c-0.3,0.3-0.6,0.4-1.1,0.5
			c-0.1,0-0.3,0-0.4,0c-0.5,0-0.9-0.3-1.1-0.5c0.1,1.1,0.2,2.1,0.3,2.8c0.1,0.2,0.3,0.5,0.6,0.6c0.3,0.2,0.7,0.2,1.1,0
			c0-0.3,0-0.6,0.2-0.9l0.2,0.1c-0.5,1,0.3,1.4,0.4,1.5l-0.1,0.2c0,0-0.4-0.2-0.6-0.6c-0.1,0-0.3,0.1-0.4,0.1c-0.3,0-0.6,0-0.9-0.1
			c-0.1-0.1-0.3-0.2-0.4-0.3c0,0.1,0,0.2,0,0.2c0.3,2.8,3.3,1.9,3.8,0.6c0,0,0,0,0,0c0.1-0.2,0.2-0.5,0.1-0.9
			c-0.1-0.4-0.3-0.8-0.8-1.1c-0.2,0.3-0.4,0.5-0.8,0.7l-0.1-0.2c1.2-0.4,0.8-1.6,0.8-1.6l0.3-0.1c0,0,0.2,0.5,0,1
			c0.5,0.4,0.9,0.8,0.9,1.3c0.1,0.3,0,0.6-0.1,0.9c0.5-0.1,1.1-0.7,1.3-1.4l0,0c0,0,0.2-0.8-0.2-1.3c-0.3-0.4-0.7-0.6-1.3-0.7l0-0.3
			c0.7,0.1,1.2,0.3,1.5,0.8c0.1,0.2,0.2,0.4,0.3,0.6c0.2-0.3,0.5-0.9,0.2-1.3C180.1,314.8,179.7,313.7,179.2,313.3z"/>
		<path class="st5" d="M175.5,320.5c-0.2,0-0.3,0-0.5,0c-0.5-0.1-1.4-0.4-1.6-2l-0.1-0.6l0.2,0.2c-0.1-0.1-0.2-0.2-0.2-0.3l0,0
			l-0.4-3.1l0.3,0.2c0.2,0.2,0.6,0.4,1.1,0.5c0.6,0,1.1-0.1,1.4-0.5l0.3-0.4l-0.1,0.3c0.1,0,0.3,0,0.6,0c0.3,0,0.5-0.1,0.6-0.2
			c0.3-0.2,0.4-0.5,0.5-0.9l0-0.1l0.1,0c0.1,0,0.3,0,0.5,0c0.2,0,0.4-0.1,0.6-0.2c0.1-0.1,0.2-0.2,0.3-0.3l0.1-0.1l0.1,0.1
			c0.3,0.2,0.6,0.7,0.7,1.1c0.1,0.4-0.1,0.9-0.4,1.2c0.2,0.4,0.1,0.9-0.3,1.4l-0.2,0.2l0-0.1c0,0.2,0,0.5,0,0.6l0,0l0,0.1
			c-0.2,0.8-0.8,1.4-1.4,1.5l-0.2,0.1l0-0.1c0,0,0,0,0,0l0,0.1l0,0C177.1,319.9,176.3,320.4,175.5,320.5z M173.6,318.7
			c0.1,0.9,0.6,1.5,1.4,1.6c0.9,0.1,1.9-0.5,2.2-1.2l0-0.1l0,0c0.1-0.3,0.1-0.5,0.1-0.7c-0.1-0.3-0.3-0.6-0.6-0.9
			c-0.2,0.3-0.5,0.5-0.8,0.6l-0.1,0l-0.2-0.4l0,0.1c-0.4,0.9,0.2,1.2,0.3,1.3l0.1,0.1l-0.2,0.5l-0.1-0.1c0,0-0.4-0.2-0.6-0.6
			c-0.5,0.1-0.9,0.1-1.3-0.1C173.7,318.7,173.7,318.7,173.6,318.7z M176.9,316.9c0.5,0.4,0.8,0.8,0.9,1.3c0,0.2,0,0.5,0,0.7
			c0.4-0.2,0.8-0.6,0.9-1.1l0-0.1c0,0,0.2-0.7-0.2-1.2c-0.2-0.3-0.6-0.5-1.2-0.6l-0.1,0l0.1-0.5l0.1,0c0.7,0.1,1.3,0.4,1.6,0.8
			c0.1,0.1,0.1,0.2,0.2,0.4c0.2-0.3,0.3-0.6,0.1-0.9l-0.1-0.1l0.1-0.1c0.3-0.3,0.4-0.7,0.4-1.1c0-0.3-0.2-0.7-0.4-0.9
			c-0.1,0.1-0.2,0.2-0.3,0.2c-0.2,0.1-0.4,0.2-0.7,0.2c-0.1,0-0.3,0-0.4,0c-0.1,0.4-0.3,0.7-0.6,0.9c-0.2,0.2-0.5,0.2-0.8,0.3
			c-0.3,0-0.6,0-0.7,0c-0.4,0.3-0.9,0.5-1.5,0.5c-0.3,0-0.6-0.1-1-0.3l0.3,2.4c0.1,0.2,0.3,0.4,0.5,0.5c0.2,0.1,0.5,0.1,0.8,0.1
			c0-0.3,0-0.6,0.2-0.9l0.1-0.1l0.5,0.2l0,0l0.1,0c1-0.4,0.8-1.3,0.7-1.4l0-0.1l0.5-0.2l0,0.1C176.9,315.8,177.1,316.3,176.9,316.9z
			"/>
	</g>
	<g id="XMLID_100_">
		<g>
			<path class="st23" d="M175.3,310.1c-0.1,0.6-0.5,1-0.8,1.1c0.2,0.3,0.3,0.7,0.3,0.9c0.3,0,0.6,0,1,0.2l-0.1,0.2
				c-1-0.5-1.5,0.3-1.5,0.3l-0.2-0.1c0,0,0.2-0.4,0.6-0.5c0-0.2-0.1-0.9-0.6-1.2c-0.3-0.2-0.8-0.3-1.4-0.1c0.1,1,0.3,2.3,0.4,3.7
				c0.2,0.2,0.7,0.6,1.2,0.6c0.6,0,1-0.1,1.3-0.4c0.4-0.4,0.4-1,0.4-1.1l0.3,0c0,0,0,0.5-0.3,1c0.2,0,0.7,0.1,1.1-0.2
				c0.2-0.2,0.4-0.4,0.4-0.8c-0.1,0-0.2-0.1-0.3-0.2c-0.4-0.4-0.5-1-0.5-1l0.3,0c0,0,0,0.5,0.4,0.8c0.1,0.1,0.1,0.1,0.2,0.1l0.1,0
				c0,0,0.6,0.2,1.1-0.1c0.2-0.2,0.4-0.4,0.4-0.6c0-0.1,0-0.2,0-0.2c0-0.4-0.2-0.9-0.7-0.9c0.1-0.9-0.6-1.7-1.3-1.8
				c0.2,0.5,0.2,0.9,0.1,1.3c-0.3,0.7-1.1,0.9-1.1,0.9l-0.1-0.3c0,0,0.7-0.2,1-0.7c0.1-0.3,0.1-0.6-0.1-1.2c0,0,0,0,0,0
				c-0.1-0.6-1-1.2-1.8-1C175.3,309.2,175.4,309.7,175.3,310.1z"/>
		</g>
		<g>
			<path class="st5" d="M174.6,315.3c-0.1,0-0.3,0-0.4,0c-0.5,0-1-0.4-1.3-0.7l0,0l-0.5-3.8l0.1,0c0.6-0.2,1.1-0.2,1.5,0.1
				c0.1,0.1,0.2,0.2,0.3,0.3l0.1-0.1c0.2-0.2,0.6-0.5,0.7-1.1l0,0c0.1-0.4,0-0.8-0.2-1.1l-0.1-0.1l0.2-0.1c0.4-0.1,0.8-0.1,1.2,0.1
				c0.3,0.2,0.6,0.5,0.7,0.8l0.2,0c0.4,0,0.8,0.3,1.1,0.6c0.3,0.3,0.4,0.8,0.4,1.2c0.4,0.1,0.6,0.5,0.6,1c0,0.1,0,0.2,0,0.3
				c-0.1,0.3-0.2,0.5-0.5,0.7c-0.5,0.4-1.2,0.2-1.2,0.2l-0.1,0l0.1,0l0,0.1c-0.1,0.4-0.2,0.7-0.5,0.9c-0.4,0.3-0.9,0.3-1.2,0.2
				l-0.2,0l0-0.1c0,0-0.1,0.1-0.1,0.1C175.3,315.1,175,315.3,174.6,315.3z M173.1,314.5c0.2,0.2,0.6,0.5,1.1,0.6
				c0.5,0,0.9-0.1,1.2-0.4c0.4-0.4,0.3-0.9,0.3-1l0-0.1l0.5,0l0,0.1c0,0,0,0.5-0.2,0.9c0.2,0,0.6,0,0.8-0.2c0.2-0.1,0.3-0.3,0.4-0.6
				c-0.1,0-0.2-0.1-0.2-0.2c-0.5-0.4-0.5-1-0.5-1.1l0-0.1l0.5,0l0,0.1c0,0,0,0.4,0.3,0.7c0.1,0,0.1,0.1,0.2,0.1l0.1,0
				c0,0,0.6,0.2,1-0.1c0.2-0.1,0.3-0.3,0.4-0.5c0-0.1,0-0.1,0-0.2c0-0.2-0.1-0.7-0.5-0.8l-0.1,0l0-0.1c0.1-0.4,0-0.8-0.3-1.1
				c-0.2-0.2-0.4-0.4-0.7-0.5c0.1,0.4,0.1,0.8,0,1.2c-0.3,0.7-1.2,0.9-1.2,0.9l-0.1,0l-0.1-0.5l0.1,0c0,0,0.7-0.2,0.9-0.6
				c0.1-0.2,0.1-0.5-0.1-1l0,0l0,0l0,0l0-0.2c-0.1-0.3-0.3-0.5-0.6-0.7c-0.3-0.2-0.6-0.2-0.8-0.2c0.2,0.4,0.2,0.8,0.2,1.2l0,0
				c-0.1,0.5-0.5,0.9-0.7,1.1c0.2,0.3,0.2,0.6,0.3,0.8c0.3,0,0.6,0.1,0.9,0.2l0.1,0.1l-0.2,0.5l-0.1-0.1c-0.9-0.5-1.3,0.2-1.3,0.3
				l-0.1,0.1l-0.5-0.3l0.1-0.1c0,0,0.2-0.3,0.6-0.6c0-0.3-0.2-0.8-0.6-1c-0.3-0.2-0.7-0.2-1.2-0.1L173.1,314.5z M177,309.8
				c0.1,0.3,0.2,0.6,0.2,0.9C177.2,310.4,177.2,310.2,177,309.8L177,309.8L177,309.8z"/>
		</g>
	</g>
	<g id="XMLID_8_">
		<g>
			<path class="st24" d="M174.1,310.8c0.1,0.1,0.2,0.1,0.2,0.2c0.2-0.2,0.6-0.5,0.7-1c0.1-0.4,0-0.8-0.3-1.3
				c-0.2-0.3-0.7-0.7-1.3-0.6c-0.8,0.1-1.1,0.8-1,1.6c0,0.1,0.1,0.5,0.1,1C173.2,310.5,173.7,310.5,174.1,310.8z"/>
		</g>
		<g>
			<path class="st5" d="M174.3,311.2L174.3,311.2c-0.2-0.2-0.2-0.2-0.3-0.3l0,0c-0.4-0.2-0.9-0.3-1.5-0.1l-0.2,0l-0.1-1.1
				c-0.1-1,0.3-1.6,1.1-1.7c0.8-0.1,1.3,0.5,1.4,0.6c0.3,0.5,0.5,1,0.4,1.4C175.1,310.6,174.7,310.9,174.3,311.2L174.3,311.2z
				 M174.2,310.7c0.1,0,0.1,0.1,0.2,0.1c0.2-0.2,0.5-0.4,0.5-0.8c0.1-0.4,0-0.8-0.3-1.2c-0.1-0.1-0.5-0.6-1.2-0.5
				c-0.6,0.1-1,0.6-0.9,1.4l0.1,0.8C173.3,310.3,173.8,310.4,174.2,310.7L174.2,310.7z"/>
		</g>
	</g>
	<g id="XMLID_94_">
		<g>
			<path class="st23" d="M167.3,314.3c0.4,0,0.7,0.2,0.9,0.5c0.1,0.1,0.2,0.2,0.2,0.4c0.4-0.1,0.7-0.2,0.8-0.5
				c0.1-0.2,0.1-0.4-0.1-0.7l-0.1-0.1l0.2,0c0.3-0.1,0.7-0.4,0.7-0.7c0.1-0.4-0.1-0.8-0.4-1.2c-0.1,0-0.1,0.1-0.2,0.1
				c-0.4,0.2-0.8,0.1-1.3-0.1c-0.1,0.2-0.4,0.7-0.9,1c-0.1,0.1-0.3,0.1-0.5,0.1c-0.1,0-0.2,0-0.3,0c-0.5,0.3-0.4,1.1-0.2,1.5
				C166.4,314.4,166.8,314.2,167.3,314.3z"/>
		</g>
		<g>
			<path class="st5" d="M168.3,315.3l0-0.1c0-0.1-0.1-0.2-0.2-0.3c-0.2-0.3-0.5-0.4-0.8-0.5l0,0c-0.4,0-0.8,0.1-1.1,0.3l-0.1,0.1
				l-0.1-0.1c-0.1-0.3-0.2-0.8-0.1-1.2c0.1-0.2,0.2-0.4,0.4-0.5l0,0l0,0c0.2,0,0.5,0,0.7-0.1c0.5-0.2,0.7-0.6,0.8-0.9l0.1-0.1
				l0.1,0.1c0.5,0.2,0.9,0.2,1.2,0.1c0.1,0,0.1-0.1,0.2-0.1l0.1-0.1l0.1,0.1c0.4,0.5,0.5,0.9,0.4,1.4c-0.1,0.3-0.5,0.7-0.8,0.8
				c0.2,0.3,0.2,0.6,0.1,0.8c-0.1,0.3-0.5,0.5-0.9,0.6L168.3,315.3z M167.3,314.1c0.4,0,0.8,0.3,1,0.6c0.1,0.1,0.1,0.2,0.2,0.3
				c0.3-0.1,0.5-0.2,0.6-0.4c0.1-0.2,0.1-0.4-0.1-0.6l-0.2-0.3l0.3-0.1c0.3-0.1,0.6-0.3,0.6-0.6c0.1-0.4,0-0.7-0.3-1
				c0,0-0.1,0.1-0.1,0.1c-0.4,0.2-0.8,0.2-1.3,0c-0.1,0.3-0.4,0.7-0.9,0.9c-0.2,0.1-0.5,0.1-0.7,0.1c-0.1,0.1-0.2,0.2-0.2,0.3
				c-0.1,0.3,0,0.6,0,0.9C166.5,314.2,166.9,314.1,167.3,314.1L167.3,314.1z"/>
		</g>
	</g>
	<g id="XMLID_91_">
		<g>
			<path class="st24" d="M167,312.7c0.6-0.2,0.8-0.9,0.8-0.9l0-0.1l0.1,0.1c0.5,0.2,0.9,0.3,1.2,0.1c0.5-0.2,0.8-0.8,0.8-1
				c-0.1-0.1-0.2-0.3-0.3-0.6l0.2-0.1c0.1,0.4,0.4,0.7,0.6,0.8c0.4,0.1,0.8-0.1,0.8-0.1l0.1,0.2c0,0-0.2,0.2-0.6,0.2
				c-0.1,0-0.3,0-0.5,0c-0.1,0-0.2-0.1-0.3-0.2c-0.1,0.2-0.2,0.5-0.5,0.7c0.3,0.3,0.6,0.8,0.5,1.5c-0.1,0.3-0.3,0.6-0.6,0.8
				c0.6,0.3,1,0.4,1.4,0.2c0.5-0.2,0.6-0.8,0.6-0.8l0.3,0c0,0-0.1,0.7-0.7,1c-0.1,0.1-0.2,0.1-0.4,0.1c-0.3,0-0.8-0.1-1.2-0.3
				c0.1,0.2,0,0.4-0.1,0.6c-0.1,0.2-0.3,0.4-0.6,0.5c0.5,0,1.1,0.1,1.4,0.8c0.1-0.4,0.4-0.7,0.7-0.9c0.4-0.2,0.9-0.3,1.5-0.1
				c-0.3-2.2-0.6-4.7-0.6-5.3c-0.1-0.8-0.5-1.4-1.3-1.3c-0.8,0.1-1.2,0.8-1.2,1.1c-1-0.3-1.8,0.7-1.7,1.3c-0.8,0-1.5,1-1.3,1.9
				C166.5,312.8,166.8,312.8,167,312.7z"/>
		</g>
		<g>
			<path class="st5" d="M170.3,316.5l-0.2-0.3c-0.3-0.5-0.7-0.8-1.3-0.7l-0.7,0l0.6-0.3c0.2-0.1,0.4-0.3,0.5-0.4
				c0.1-0.2,0.1-0.3,0-0.5l-0.1-0.3l0.2-0.1c0.3-0.2,0.5-0.4,0.6-0.7c0.1-0.5-0.1-0.9-0.4-1.3l-0.1-0.1c-0.1,0.1-0.2,0.1-0.3,0.2
				c-0.4,0.2-0.8,0.1-1.3-0.1c0,0.1-0.3,0.8-0.9,1l0,0c-0.2,0.1-0.5,0.1-0.7,0.1l-0.1,0l0-0.1c-0.1-0.5,0-1.1,0.3-1.5
				c0.2-0.3,0.6-0.5,0.9-0.6c0-0.4,0.2-0.7,0.6-1c0.4-0.3,0.8-0.4,1.2-0.3c0.1-0.4,0.6-1,1.3-1.1c0.8-0.1,1.4,0.5,1.5,1.4l0.7,5.5
				l-0.2-0.1c-0.5-0.2-0.9-0.1-1.3,0.1c-0.3,0.2-0.6,0.5-0.7,0.9L170.3,316.5z M169.3,315.2c0.3,0.1,0.7,0.2,1,0.6
				c0.1-0.3,0.4-0.6,0.7-0.8c0.4-0.2,0.9-0.3,1.4-0.2l-0.6-5.1c-0.1-0.8-0.5-1.3-1.2-1.2c-0.7,0.1-1.1,0.7-1.1,1l0,0.1l-0.1,0
				c-0.5-0.2-0.9,0.1-1.1,0.2c-0.3,0.3-0.5,0.6-0.5,0.9l0,0.1l-0.1,0c-0.3,0-0.6,0.2-0.8,0.5c-0.3,0.3-0.4,0.8-0.3,1.2
				c0.2,0,0.3,0,0.5-0.1l0,0c0.5-0.2,0.7-0.8,0.7-0.8l0.1-0.3l0.3,0.1c0.4,0.2,0.8,0.3,1.1,0.1c0.4-0.2,0.6-0.6,0.7-0.8
				c-0.1-0.1-0.2-0.3-0.3-0.5l0-0.1l0.5-0.2l0,0.1c0.1,0.4,0.3,0.6,0.6,0.7c0.3,0.1,0.7-0.1,0.7-0.1l0.1-0.1l0.3,0.4l-0.1,0.1
				c0,0-0.3,0.2-0.6,0.2c-0.2,0-0.4,0-0.5-0.1c-0.1,0-0.1-0.1-0.2-0.1c-0.1,0.2-0.2,0.3-0.4,0.5c0.4,0.5,0.5,1,0.4,1.5
				c0,0.3-0.3,0.5-0.5,0.7c0.4,0.2,0.8,0.2,1.1,0.1c0.4-0.2,0.5-0.7,0.5-0.7l0-0.1l0.5,0.1l0,0.1c0,0.1-0.1,0.8-0.8,1.1
				c-0.4,0.2-0.9,0.2-1.5-0.1c0,0.2,0,0.3-0.1,0.5C169.5,315,169.4,315.1,169.3,315.2z"/>
		</g>
	</g>
	<g id="XMLID_90_">
		<path class="st22" d="M171.1,315.4c-0.4,0.2-0.6,0.6-0.7,1.1l0,0.2l-0.2,0c-0.4-0.1-0.8,0-1,0.2c-0.4,0.3-0.6,0.8-0.3,1.5
			c0.5-0.2,0.9,0,1.4,0.4c0,0,0,0,0,0c0.4-0.4,1-0.4,1.6-0.1l-0.1,0.2c-0.5-0.3-1-0.2-1.3,0.1c-0.3,0.3-0.4,0.8-0.2,1.1l-0.2,0.1
			c-0.2-0.4-0.2-0.8,0.1-1.2c-0.3-0.4-0.7-0.5-1.1-0.3c-0.4,0.2-0.6,0.6-0.6,1l-0.3,0c0-0.4,0.2-0.9,0.6-1.1
			c-0.4-0.7-0.1-1.5,0.3-1.8c0.2-0.1,0.6-0.3,0.9-0.3c-0.4-0.9-1.3-0.8-1.8-0.6l-0.2,0.1l0-0.2c0-0.2,0-0.4-0.2-0.6
			c-0.2-0.2-0.5-0.4-0.7-0.4c-0.5,0-0.9,0.2-1.2,0.3c-0.4,0.5-0.5,1.6,0.4,2.2c-0.3,0.7,0.6,1.3,0.8,1.4c0.2,1.3,1.4,1.8,2.1,1.6
			c0.8,1.2,3.9,1.4,3.6-1.4c0-0.3-0.2-1.6-0.4-3.2C172,315.2,171.5,315.2,171.1,315.4z"/>
		<path class="st5" d="M171.4,321c-0.8,0.1-1.7-0.2-2.2-0.8c-0.4,0.1-0.8,0-1.2-0.3c-0.5-0.3-0.8-0.8-0.9-1.4
			c-0.3-0.2-1-0.7-0.8-1.4c-0.3-0.2-0.6-0.6-0.6-1c-0.1-0.5,0.1-1,0.3-1.3l0,0c0.3-0.2,0.8-0.4,1.2-0.4c0.3,0,0.6,0.2,0.8,0.5
			c0.2,0.2,0.2,0.5,0.2,0.7c0.5-0.2,1.4-0.3,1.9,0.7l0.1,0.2l-0.1,0c0.1,0,0.1,0,0.2,0c0-0.5,0.3-0.9,0.7-1.2l0,0
			c0.4-0.2,1-0.3,1.5,0l0.1,0l0.4,3.3c0.2,1.5-0.6,2.1-1.1,2.3C171.7,321,171.6,321,171.4,321z M169.3,319.9L169.3,319.9
			c0.5,0.7,1.6,1,2.4,0.7c0.7-0.3,1.1-1,1-2l-0.4-3.2c-0.4-0.2-0.8-0.1-1.2,0.1c-0.4,0.2-0.6,0.6-0.6,1l0,0.3l-0.3-0.1
			c-0.3-0.1-0.7,0-0.9,0.2c-0.3,0.2-0.5,0.7-0.3,1.2c0.4-0.1,0.9,0,1.3,0.4c0.4-0.4,1-0.4,1.6-0.1l0.1,0.1l-0.2,0.5l-0.1-0.1
			c-0.4-0.2-0.9-0.2-1.1,0c-0.2,0.2-0.3,0.6-0.2,1l0.1,0.1l-0.5,0.2l-0.1-0.1c-0.2-0.4-0.2-0.9,0-1.2c-0.3-0.3-0.6-0.3-0.9-0.2
			c-0.3,0.1-0.5,0.5-0.5,0.8l0,0.1l-0.5,0l0-0.1c0-0.4,0.2-0.9,0.5-1.1c-0.4-0.8,0-1.5,0.4-1.9c0.2-0.1,0.4-0.2,0.8-0.3
			c-0.4-0.6-1-0.5-1.5-0.4l-0.4,0.1l0.1-0.4c0-0.1,0-0.3-0.1-0.5c-0.2-0.2-0.4-0.3-0.6-0.4c-0.4,0-0.8,0.1-1.1,0.3
			c-0.2,0.2-0.3,0.7-0.3,1c0,0.3,0.2,0.7,0.6,0.9l0.1,0.1l0,0.1c-0.2,0.6,0.5,1.1,0.7,1.2l0.1,0l0,0.1c0.1,0.7,0.6,1.1,0.8,1.3
			C168.5,319.9,169,320,169.3,319.9L169.3,319.9z"/>
	</g>
</g>
</svg>
