<?xml version="1.0" encoding="utf-8"?>
<!-- Generator: Adobe Illustrator 19.0.0, SVG Export Plug-In . SVG Version: 6.00 Build 0)  -->
<svg version="1.1" id="Layer_1" xmlns="http://www.w3.org/2000/svg" xmlns:xlink="http://www.w3.org/1999/xlink" x="0px" y="0px"
	 viewBox="694 37 1605.1 300" style="enable-background:new 694 37 1605.1 300;" xml:space="preserve">
<style type="text/css">
	.st0{font-family:'ArialMT';}
	.st1{font-size:2.3442px;}
	.st2{fill:#316993;}
	.st3{fill:#003042;}
</style>
<text transform="matrix(1 0 0 1 986.1079 188.2993)" class="st0 st1">#003A60</text>
<rect id="XMLID_27_" x="694" y="37" class="st2" width="1605.1" height="300"/>
<path id="XMLID_28_" class="st3" d="M1162.5,243.6c1.9,3.6,4.3,6.9,6.5,10.4c-0.1-0.1-0.3-0.3-0.4-0.4c-2.4-2.5-4.4-5.2-6.3-8.1
	c-1.3-2.1-2.6-4.2-3.9-6.2c-0.2-0.3-0.5-0.5-0.7-0.6c-2.5-1.3-5-2.7-7.5-4c-0.8-0.4-1.8-0.6-2.7-0.9c-1-0.3-2.1-0.5-3-1
	c-0.7-0.4-1.3-1-1.9-1.5c-0.2-0.1-0.2-0.5-0.2-0.7c0.2,0,0.4-0.1,0.7-0.1c0.1,0,0.2,0,0.4,0c-0.2-0.2-0.3-0.3-0.4-0.4
	c-0.5-0.5-0.6-1.1,0-1.5c0.7-0.5,1.6-0.9,2.4-1.3c0.4-0.2,0.6-0.3,0.8-0.7c1.6-3.2,3.9-5.7,6.5-8.1c4.3-3.9,9-7.3,13.7-10.7
	c4.5-3.3,9-6.7,13.6-10c0.4-0.3,0.9-0.5,1.4-0.8c0,0.2,0.1,0.2,0.1,0.2c-0.7,0.6-1.1,1.5-1.8,2.1c-4.6,3.9-9.1,7.9-13.4,12.2
	c-1,1-1.9,2-2.1,3.4c-0.1,0.6,0.1,1.3,0.3,1.9c0.1,0.4,0.2,0.6,0,0.9c-0.8,1.4-1.2,2.8-0.9,4.4c0.2,0.9,0.7,1.4,1.6,1.6
	c1.1,0.2,2.1-0.1,3.1-0.5c3-1,6.1-2.1,9.1-3.1c0.3-0.1,0.6-0.1,0.9-0.1c0,0.1,0,0.1,0.1,0.2c-0.1,0.1-0.3,0.3-0.4,0.3
	c-0.6,0-0.8,0.5-1.1,0.9c-1.5,2.1-2.4,4.3-2.4,6.9c0,1.1,0.2,2.2,0.7,3.2c0.3,0.5,0.6,0.9,1.3,0.9c0.2,0,0.3,0.1,0.6,0.1
	c-0.9,0.3-1.8,0.4-2.6,0.2c-2.1-0.5-4-1.4-5.7-2.7c-1-0.8-2.5-0.4-3.1,0.7c-0.6,1.3-0.4,2.6,0,3.8c0.8,2.5,2.1,4.7,4.1,6.5
	c3.2,3,6.7,5.5,10.3,8c4,2.8,8.1,5.4,12.2,8.1c0.1,0.1,0.3,0.2,0.3,0.3c-0.2-0.1-0.3-0.1-0.4-0.2c-7.4-4.6-14.8-9.2-22.1-13.9
	c-0.6-0.4-1.1-0.9-1.5-1.3c-1.4-1.3-3-2.2-4.6-3.1c-0.7-0.4-1.4-0.7-2.1-1c-0.2-0.1-0.5,0-0.8,0c0,0.2,0,0.5,0.1,0.7
	c0.5,0.8,0.8,1.8,1.5,2.5c2.3,2.5,4.6,5,7,7.5c0.1,0.1,0.2,0.2,0.3,0.4C1166.9,247.4,1164.8,245.4,1162.5,243.6z"/>
<path id="XMLID_44_" class="st3" d="M1692.4,92.1c1.2-3.9,1.9-7.9,2.8-11.9c0,0.2,0,0.4,0,0.6c0,3.5-0.6,6.8-1.3,10.2
	c-0.5,2.4-1.1,4.8-1.6,7.2c-0.1,0.3,0,0.7,0.1,1c0.8,2.7,1.6,5.4,2.5,8.1c0.3,0.9,0.8,1.7,1.3,2.5c0.5,1,1.1,1.9,1.4,2.9
	c0.3,0.8,0.2,1.6,0.3,2.4c0,0.2-0.2,0.4-0.3,0.6c-0.2-0.1-0.4-0.3-0.6-0.4c-0.1-0.1-0.1-0.1-0.2-0.3c0,0.2,0,0.4,0,0.5
	c0,0.7-0.4,1.2-1.1,1c-0.9-0.2-1.8-0.5-2.6-0.8c-0.4-0.1-0.6-0.2-1-0.1c-3.4,1.1-6.8,1.3-10.3,1.1c-5.8-0.3-11.5-1.2-17.3-2.1
	c-5.6-0.8-11.1-1.7-16.6-2.5c-0.5-0.1-1-0.3-1.6-0.4c0.1-0.1,0.1-0.2,0.1-0.2c0.9,0,1.8-0.3,2.8-0.2c6,0.5,12,0.9,18.1,0.8
	c1.4,0,2.8-0.1,3.9-1c0.5-0.4,0.9-1,1.2-1.6c0.2-0.3,0.3-0.5,0.6-0.6c1.5-0.4,2.8-1.2,3.7-2.5c0.5-0.8,0.5-1.5,0-2.2
	c-0.6-0.9-1.5-1.4-2.5-1.9c-2.9-1.4-5.7-2.8-8.6-4.3c-0.3-0.1-0.5-0.3-0.7-0.5c0-0.1,0.1-0.1,0.1-0.2c0.2,0,0.4,0,0.5,0.1
	c0.4,0.4,0.9,0.2,1.4,0.2c2.5-0.4,4.8-1.3,6.6-3.1c0.8-0.8,1.4-1.7,1.8-2.7c0.2-0.6,0.2-1.1-0.3-1.5c-0.1-0.1-0.2-0.3-0.3-0.5
	c0.9,0.4,1.5,1,2,1.7c1.1,1.8,1.8,3.8,2.1,5.9c0.2,1.3,1.5,2.1,2.7,1.7c1.3-0.5,2.1-1.5,2.7-2.7c1.2-2.3,1.8-4.8,1.7-7.4
	c-0.2-4.4-0.9-8.7-1.7-12.9c-0.9-4.8-1.9-9.6-2.9-14.4c0-0.2-0.1-0.3,0-0.5c0.1,0.2,0.1,0.3,0.2,0.5c2,8.5,3.9,17,5.8,25.5
	c0.2,0.6,0.1,1.4,0.1,2c0.1,1.9,0.5,3.7,1.1,5.5c0.2,0.8,0.5,1.5,0.8,2.2c0.1,0.2,0.4,0.4,0.6,0.6c0.2-0.2,0.4-0.3,0.4-0.5
	c0.3-0.9,0.7-1.9,0.7-2.8c0.2-3.4,0.2-6.8,0.4-10.2c0-0.2,0-0.3,0.1-0.5C1692,86.4,1692.1,89.3,1692.4,92.1z"/>
<path id="XMLID_77_" class="st3" d="M1271.7,172.4c0.6,1.8,1.4,2.5,2.7,3.9c-0.7-0.3-1.2-0.5-1.9-0.7c0.2,0.2,0.4,0.4,0.5,0.5
	c-1.4-0.2-3.6-1.9-4.2-3.4c-0.3-0.6-0.6-1-1.3-1.3c-1.6-0.7-2.6-2-3.2-3.6c-0.3-0.6-0.6-0.9-1.3-1c-1-0.1-3.1-0.2-3.2-0.4
	c-0.1-0.2,0.6-0.6,0.9-0.8c-0.2-0.2-0.6-0.5-0.5-0.7c0.1-0.2,0.5-0.2,0.8-0.3c2.1-0.5,3.1-1.7,3.3-3.7c0-0.2,0.2-0.5,0.3-0.7
	c0.6-0.9,1.3-1.8,1.9-2.8c2.6-3.9,6.1-6.1,10.8-6.5c0.4,0,0.7,0,1.1,0c0.3,0,0.5,0.1,0.8,0.2c-0.2,0.1-0.4,0.2-0.7,0.3
	c-2.3,0.9-3.5,2.6-2.5,5.1c0.5,1.1,1.1,2.2,1.7,3.3c0.4,0.8,0.9,1.7,1.3,2.5c0.3,0.7,0.6,0.8,1.3,0.3c1.1-0.8,2.1-1.7,3.2-2.6
	c0.1-0.1,0.3-0.2,0.6-0.4c-0.1,1.7-0.4,3.2-0.3,4.7c0.1,1.5-0.2,3.2,0.6,4.6l0,0c-0.4-0.2-0.7-0.5-1.1-0.7c-0.6-0.5-1.1-1-1.7-1.4
	c-0.3-0.2-0.7-0.3-1-0.4c-0.5-0.1-0.5,0.2-0.5,0.9c-0.9,0-0.9,0.6-1.1,1c-0.5,1.1-0.5,3.1,0,4.7c0.2,0.7,0.4,1.3,0.6,2
	c0.3,0.9-0.2,0.8-0.6,0.8c-0.4,0-1.2-0.2-1.5-0.4c-1.3-0.7-2.3-1.2-3.5-2c-0.5-0.4-1-0.7-1.6-0.8L1271.7,172.4z"/>
<path id="XMLID_118_" class="st3" d="M1562.7,246.1L1562.7,246.1c-0.1-0.1-0.2-0.1-0.2-0.1c-0.1,0-0.2,0-0.2,0.1c0,0-0.1,0-0.1,0
	c0-0.1,0-0.2,0.1-0.2c0,0,0,0,0,0c0.1-0.1,0.1,0,0.2-0.1c0,0,0,0,0,0l0,0c0.1,0,0-0.2-0.1-0.3c-0.1-0.1-0.1-0.1-0.2-0.2
	c0-0.1-0.2-0.2-0.3-0.3c-0.1-0.1-0.1,0-0.3-0.1c0-0.1-0.1-0.3-0.1-0.3c-0.1-0.1-0.1-0.1-0.2-0.1c-0.1,0-0.1-0.1-0.2-0.2
	c0-0.1-0.1-0.1-0.1-0.2l0,0c0-0.1,0-0.2-0.1-0.4c0-0.4,0.3-0.8,0-1.1c-0.2-0.2-0.3-0.5-0.6-0.8c0,0,0,0,0,0v0v0
	c0-0.1-0.2-0.4-0.3-0.5l-0.1,0l0,0c0-0.3-0.4-0.4-0.5-0.9c-0.3-1-0.9-2-1.5-2.5c-0.5-0.8-1.5-1.5-2.8-2.2c-0.8-0.4-1.9-1-3-1.3
	c-1.7-0.6-3.9-1-5.1-1.3c-0.3-0.1-0.8-0.2-1.4-0.3c-0.1,0-0.2,0-0.2,0c-1.9-0.3-4.5-0.5-4.7-0.1c-0.2,0.3-0.4,0.8-0.5,1
	c0,0.1,0,0.1,0,0.1l0,0c0,0,0,0.1,0,0.1c-0.1,0.1-0.2,0.1-0.2,0.2c0,0-0.1,0.1-0.1,0.1c-0.1,0.1,0,0.2-0.1,0.2c0,0.1-0.1,0-0.1,0.1
	c0,0,0,0.1,0,0.1c0,0.1,0,0-0.1,0.1c0,0-0.2,0.2-0.2,0.3c0,0,0,0.1,0,0.1c0,0,0,0-0.1,0s0,0.1,0,0.1c0,0,0,0,0,0c0,0-0.1,0-0.1,0.1
	c0,0,0,0.1,0,0.1c-0.1,0,0,0,0,0.1c0,0,0,0,0,0c0,0,0,0,0,0c0,0,0,0,0,0c0,0,0,0.1,0,0.1c0,0.1,0,0.1,0,0.2c0,0,0,0.1,0,0.1
	c-0.1,0,0,0.1,0,0.1c0,0,0,0.1,0,0.2c0,0,0,0.1,0,0.1c-0.1,0.1,0,0.1,0,0.1c0,0,0,0.1,0,0.2c0,0.1,0.1,0.1,0,0.2c0,0,0.1,0.1,0,0.2
	c0,0,0,0.1,0,0.1c0,0,0,0.1,0.1,0.1c0,0.1,0,0.1,0,0.2c0,0.1,0.1,0.2,0.1,0.3c0,0,0,0.2,0,0.2c0,0.1,0.1,0.2,0.2,0.2
	c0,0,0,0.1,0,0.1c0,0,0.1,0.1,0.1,0.1c0,0,0.1,0.1,0.1,0.1c0,0,0.1,0,0.1,0s0,0,0,0c-0.2-0.1-0.6-0.3-0.6-0.3
	c-0.5-0.4-1-0.8-1.3-1.3c-0.1-0.1-0.3-0.3-0.6-0.5c-0.3-0.3-0.7-0.7-0.8-0.7c-1.1-0.4-2.1,2.3-2,3.1c0.1,0.8,0.6,0.9,1.2,1.4
	c0.3,0.3,0.7,0.9,0.9,1.2c0.1,0.2,0.2,0.8,0.4,0.9c0.1,0.1,0.2,0,0.3-0.2c0.1,0,0.3-0.1,0.4-0.2c0.3-0.1,0.7-0.2,1-0.3
	c0.3-0.1,0.5-0.2,0.8-0.1l0,0c-0.1,0.1-0.3,0.2-0.3,0.5c0,0.1,0,0.1-0.1,0.2c0,0,0,0,0,0.1c0,0,0,0.1,0,0.1c-0.1,0-0.2,0.3-0.1,0.3
	c0,0,0,0.1,0,0.1c0,0,0,0.1,0,0.1c0,0.2-0.1,0.4,0.1,0.5c0,0,0.1,0,0.1,0c0,0,0,0.1,0.1,0.1c0,0,0.2,0.1,0.2,0.1c0,0,0,0.1-0.1,0.1
	l0,0l0,0c-0.1,0.2,0,0.5,0.2,0.9c0,0,0,0,0,0c0.1,0,0,0.1,0.1,0.1l0,0c0,0,0,0,0,0.1c0.2,0.2,0.4,0.5,0.6,0.6
	c0.2,0.1,0.3,0.4,0.5,0.5c0.2,0.2,0.4,0.4,0.7,0.5c0.4,0.1,0.4,0.3,0.6,0.5c0.2,0.2,0.4,0.3,0.7,0.4c0.2,0.2,0.5,0.5,0.6,0.5
	c0.8,0.6,1.9,1.3,2.8,1.6c0,0,0.3,0,0.5,0.1c0.1,0,0.2,0.1,0.2,0.1c0.4,0.2,1.2,0.3,1.5,0.3c0.4,0.1,0.8,0.1,1.2,0.2
	c1.2,0.3,2.3,0.6,3.5,0.7c1.9,0.1,3.6-0.2,5.6-1c0.5-0.2,1-0.6,1.1-0.8c0.6-0.1,0.9-0.5,1.6-1.2c0.1,0,0.3-0.1,0.4-0.2
	c0.1-0.1,0.2-0.2,0.3-0.2c0.2-0.1,0.3-0.2,0.4-0.3c0.1-0.2,0.1-0.5,0.2-0.7C1562.9,246.4,1562.8,246.2,1562.7,246.1z M1554.9,246.2
	C1554.9,246.2,1554.9,246.2,1554.9,246.2l0,0.1c0,0,0,0,0,0.1C1554.8,246.3,1554.8,246.2,1554.9,246.2z M1560.1,241.3
	C1560.1,241.4,1560.1,241.4,1560.1,241.3C1560.1,241.4,1560.1,241.4,1560.1,241.3L1560.1,241.3z"/>
<path id="XMLID_29_" class="st3" d="M1217,299.9L1217,299.9c-0.1-0.1-0.2-0.1-0.2-0.1c-0.1,0-0.2,0-0.2,0.1c0,0-0.1,0-0.1,0
	c0-0.1,0-0.2,0.1-0.2c0,0,0,0,0,0c0.1-0.1,0.1,0,0.2-0.1c0,0,0,0,0,0l0,0c0.1,0,0-0.2-0.1-0.3c-0.1-0.1-0.1-0.1-0.2-0.2
	c0-0.1-0.2-0.2-0.3-0.3c-0.1-0.1-0.1,0-0.3-0.1c0-0.1-0.1-0.3-0.1-0.3c-0.1-0.1-0.1-0.1-0.2-0.1s-0.1-0.1-0.2-0.2
	c0-0.1-0.1-0.1-0.1-0.2l0,0c0-0.1,0-0.2-0.1-0.4c0-0.4,0.3-0.8,0-1.1c-0.2-0.2-0.3-0.5-0.6-0.8c0,0,0,0,0,0v0v0
	c0-0.1-0.2-0.4-0.3-0.5l-0.1,0l0,0c0-0.3-0.4-0.4-0.5-0.9c-0.3-1-0.9-2-1.5-2.5c-0.5-0.8-1.5-1.5-2.8-2.2c-0.8-0.4-1.9-1-3-1.3
	c-1.7-0.6-3.9-1-5.1-1.3c-0.3-0.1-0.8-0.2-1.4-0.3c-0.1,0-0.2,0-0.2,0c-1.9-0.3-4.5-0.5-4.7-0.1c-0.2,0.3-0.4,0.8-0.5,1
	c0,0.1,0,0.1,0,0.1l0,0c0,0,0,0.1,0,0.1c-0.1,0.1-0.2,0.1-0.2,0.2c0,0-0.1,0.1-0.1,0.1c-0.1,0.1,0,0.2-0.1,0.2c0,0.1-0.1,0-0.1,0.1
	c0,0,0,0.1,0,0.1c0,0.1,0,0-0.1,0.1c0,0-0.2,0.2-0.2,0.3s0,0.1,0,0.1c0,0,0,0-0.1,0s0,0.1,0,0.1c0,0,0,0,0,0c0,0-0.1,0-0.1,0.1
	c0,0,0,0.1,0,0.1c-0.1,0,0,0,0,0.1s0,0,0,0c0,0,0,0,0,0c0,0,0,0,0,0c0,0,0,0.1,0,0.1c0,0.1,0,0.1,0,0.2c0,0,0,0.1,0,0.1
	c-0.1,0,0,0.1,0,0.1c0,0,0,0.1,0,0.2c0,0,0,0.1,0,0.1c-0.1,0.1,0,0.1,0,0.1c0,0,0,0.1,0,0.2c0,0.1,0.1,0.1,0,0.2c0,0,0.1,0.1,0,0.2
	c0,0,0,0.1,0,0.1c0,0,0,0.1,0.1,0.1c0,0.1,0,0.1,0,0.2c0,0.1,0.1,0.2,0.1,0.3c0,0,0,0.2,0,0.2c0,0.1,0.1,0.2,0.2,0.2
	c0,0,0,0.1,0,0.1c0,0,0.1,0.1,0.1,0.1c0,0,0.1,0.1,0.1,0.1c0,0,0.1,0,0.1,0s0,0,0,0c-0.2-0.1-0.6-0.3-0.6-0.3
	c-0.5-0.4-1-0.8-1.3-1.3c-0.1-0.1-0.3-0.3-0.6-0.5c-0.3-0.3-0.7-0.7-0.8-0.7c-1.1-0.4-2.1,2.3-2,3.1c0.1,0.8,0.6,0.9,1.2,1.4
	c0.3,0.3,0.7,0.9,0.9,1.2c0.1,0.2,0.2,0.8,0.4,0.9c0.1,0.1,0.2,0,0.3-0.2c0.1,0,0.3-0.1,0.4-0.2c0.3-0.1,0.7-0.2,1-0.3
	c0.3-0.1,0.5-0.2,0.8-0.1l0,0c-0.1,0.1-0.3,0.2-0.3,0.5c0,0.1,0,0.1-0.1,0.2c0,0,0,0,0,0.1c0,0,0,0.1,0,0.1c-0.1,0-0.2,0.3-0.1,0.3
	c0,0,0,0.1,0,0.1c0,0,0,0.1,0,0.1c0,0.2-0.1,0.4,0.1,0.5c0,0,0.1,0,0.1,0c0,0,0,0.1,0.1,0.1s0.2,0.1,0.2,0.1c0,0,0,0.1-0.1,0.1l0,0
	l0,0c-0.1,0.2,0,0.5,0.2,0.9c0,0,0,0,0,0c0.1,0,0,0.1,0.1,0.1l0,0c0,0,0,0,0,0.1c0.2,0.2,0.4,0.5,0.6,0.6c0.2,0.1,0.3,0.4,0.5,0.5
	c0.2,0.2,0.4,0.4,0.7,0.5c0.4,0.1,0.4,0.3,0.6,0.5c0.2,0.2,0.4,0.3,0.7,0.4c0.2,0.2,0.5,0.5,0.6,0.5c0.8,0.6,1.9,1.3,2.8,1.6
	c0,0,0.3,0,0.5,0.1c0.1,0,0.2,0.1,0.2,0.1c0.4,0.2,1.2,0.3,1.5,0.3c0.4,0.1,0.8,0.1,1.2,0.2c1.2,0.3,2.3,0.6,3.5,0.7
	c1.9,0.1,3.6-0.2,5.6-1c0.5-0.2,1-0.6,1.1-0.8c0.6-0.1,0.9-0.5,1.6-1.2c0.1,0,0.3-0.1,0.4-0.2c0.1-0.1,0.2-0.2,0.3-0.2
	c0.2-0.1,0.3-0.2,0.4-0.3c0.1-0.2,0.1-0.5,0.2-0.7C1217.1,300.1,1217.1,299.9,1217,299.9z M1209.1,299.9
	C1209.1,300,1209.1,300,1209.1,299.9l0,0.1c0,0,0,0,0,0.1C1209.1,300.1,1209.1,300,1209.1,299.9z M1214.4,295.1
	C1214.4,295.1,1214.3,295.1,1214.4,295.1C1214.3,295.1,1214.4,295.1,1214.4,295.1L1214.4,295.1z"/>
<path id="XMLID_97_" class="st3" d="M1648.8,160.1c0-0.1,0-0.3,0-0.4v0c-0.1-0.2-0.3-0.4-0.5-0.4c-0.1,0-0.2,0-0.3,0
	c0-0.2,0.2-0.2,0.2-0.4c0-0.2-0.3-0.3-0.2-0.4c-2.4-1.1-4.7-2.6-7.2-3.2c-1.1-0.3-2.1-0.4-3.2-0.6c-1.9-0.2-3.8-0.6-5.7,0
	c-0.2,0.2-0.7,0.1-0.6,0.5c-0.2,0.1-0.5,0-0.5,0.2c0,0.1,0.2,0.1,0.2,0.2c-0.2,0.1-0.5,0-0.6,0.1l0.2,0.2c-0.2,0.1-0.4-0.1-0.5,0.2
	l0.1,0.1c-0.1,0.1-0.4,0-0.5,0.2c0,0.1,0.1,0.1,0.1,0.2c-0.2,0.1-0.5,0-0.6,0.2c0,0,0.1,0.1,0.1,0.2c-0.1,0.1-0.5,0-0.4,0.3
	c-0.4-0.1-0.4,0.3-0.8,0.2c-0.1,0.2-0.4,0-0.5,0.2c-0.1,0-0.3,0-0.4,0.1c0,0.3-0.3,0.1-0.2,0.4l0,0.1c-0.1,0-0.3,0.1-0.4,0.3
	c-0.7,0.2-1.3,0.6-1.9,1c-0.3,0.5-0.6,0.8-0.6,1.4c-0.1,0.6,0.3,1.2,0.5,1.6c-0.1,0-0.3,0-0.4,0c-0.2,0-0.4-0.1-0.6-0.1
	c-0.3-0.1-0.6-0.1-1-0.1c-0.9-0.2-1.9-0.1-2.8,0.1c-0.1,0.1-0.4,0.1-0.3,0.3c0.1,0.1-0.1,0.2,0,0.3c0.2,0.5,0.4,1,0.9,1.2
	c0,0.1,0.1,0.1,0.1,0.2c0.2,0.3,0.4,0.6,0.7,0.8c0.1,0.3,0.3,0.3,0.4,0.6c0.3,0.2,0.8,0.2,0.7,0.6c0,0.2,0.2,0.4,0.1,0.7
	c0.3,0.2,0.2,0.7,0.6,0.8c0.3,0.1,0.5,0,0.6-0.1l0,0l0.2-0.2c0.2-0.1,0.3-0.3,0.4-0.4c0.4-0.3,0.8-0.9,1.3-1.2l0.3-0.1
	c0,0,0.1,0,0.2-0.1c0.1,0,0.2,0,0.2,0c-0.2,0.5-0.5,1.3-0.2,1.8c0,0,0,0.1,0.1,0.1l0,0l0,0c0.1,0.1,0.1,0.1,0.2,0.2
	c0.3,0.2,0.6,0.4,1,0.4l0.1,0.1c1,0,1.8-0.6,2.6-1.1c0.2-0.1,0.3-0.3,0.4-0.5c0-0.1,0-0.2-0.1-0.3l0-0.1c0.3,0.1,0.6,0.1,1,0.2
	c0.6,0.1,1.3,0.2,2,0.4c1,0.1,1.8,0.3,2.9,0.1c-0.4,0.7-1.7,0.9-1.4,2c-0.2,0.2-0.1,0.4,0,0.6c0.3,0.3,0.7,0.1,1,0
	c0.2-0.2,0.5-0.3,0.8-0.5c0.4-0.4,0.7-0.7,1-1.2c0.4-0.5,0.8-0.8,1-1.4c1.9-0.1,3.2-1.4,4.8-2.1c1.1-0.7,2-1.5,3.1-2.1
	c0.4-0.6,1.1-0.7,1.5-1.2l0.8-0.6C1648.7,160.4,1648.8,160.3,1648.8,160.1L1648.8,160.1C1648.8,160.1,1648.8,160.1,1648.8,160.1z
	 M1625.5,162.6c-0.1,0.1-0.1,0.2-0.1,0.2s0,0,0,0L1625.5,162.6z M1624.8,159.5c-0.1,0.1-0.2,0.2-0.2,0.3l0,0
	C1624.6,159.7,1624.7,159.6,1624.8,159.5z M1624.5,159.9c0,0-0.1,0.1-0.1,0.1C1624.4,160,1624.4,159.9,1624.5,159.9
	C1624.5,159.9,1624.5,159.9,1624.5,159.9z M1624.3,160.2L1624.3,160.2c0,0.1-0.1,0.2-0.1,0.4
	C1624.2,160.5,1624.2,160.3,1624.3,160.2z M1624.2,160.7c0,0.1,0,0.1,0,0.2C1624.1,160.8,1624.1,160.8,1624.2,160.7z M1624.4,162.2
	c-0.2-0.4-0.4-0.8-0.3-1.2l0,0C1624.1,161.5,1624.3,161.9,1624.4,162.2C1624.5,162.2,1624.5,162.2,1624.4,162.2z M1624.8,162.6
	l-0.3-0.3c0,0,0.1,0,0.1-0.1c0.1,0.2,0.3,0.3,0.4,0.4C1624.9,162.7,1624.9,162.6,1624.8,162.6
	C1624.8,162.6,1624.8,162.6,1624.8,162.6z M1620.7,162.4c0.5-0.1,0.9,0,1.3,0l0.1,0.1c-1.1-0.2-2.2,0-2.6,0.1
	C1619.8,162.3,1620.3,162.5,1620.7,162.4z M1619.5,162.8l0.4,0.8h-0.1C1619.6,163.4,1619.5,163.2,1619.5,162.8L1619.5,162.8
	C1619.5,162.9,1619.5,162.9,1619.5,162.8z M1619.8,163.7C1619.9,163.7,1619.9,163.7,1619.8,163.7l0.3,0.4
	C1620,163.9,1619.8,163.8,1619.8,163.7z M1620.7,164.6l0.2,0.3l0,0C1620.8,164.8,1620.7,164.7,1620.7,164.6z M1621.1,165.1l0.2,0.2
	h0C1621.2,165.2,1621.2,165.2,1621.1,165.1z M1621.4,165.4l0.3,0.2C1621.6,165.6,1621.5,165.5,1621.4,165.4z M1622.3,166.3
	C1622.3,166.3,1622.3,166.2,1622.3,166.3l0.2,0.4l0,0C1622.4,166.5,1622.2,166.4,1622.3,166.3z M1622.4,167l0-0.2
	c0,0,0.1-0.1,0.1-0.1l0.1,0.5C1622.5,167.2,1622.5,167,1622.4,167z M1623.3,167.6c-0.2,0-0.4,0-0.6-0.2L1623.3,167.6L1623.3,167.6z
	 M1626.4,165.7c0,0-0.5,0.6-0.5,1.3C1625.7,166.5,1625.9,166,1626.4,165.7z M1626.9,168.1c0.5,0.1,1.2,0,1.7-0.2
	C1628.2,168.1,1627.5,168.3,1626.9,168.1z M1632.6,166.7c0.5,0.1,1,0.1,1.4,0.2C1633.6,166.9,1633.1,166.8,1632.6,166.7z"/>
<path id="XMLID_30_" class="st3" d="M1413.2,139.3c0-0.1,0-0.3,0-0.4v0c-0.1-0.2-0.3-0.4-0.5-0.4c-0.1,0-0.2,0-0.3,0
	c0-0.2,0.2-0.2,0.2-0.4c0-0.2-0.3-0.3-0.2-0.4c-2.4-1.1-4.7-2.6-7.2-3.2c-1.1-0.3-2.1-0.4-3.2-0.6c-1.9-0.2-3.8-0.6-5.7,0
	c-0.2,0.2-0.7,0.1-0.6,0.5c-0.2,0.1-0.5,0-0.5,0.2c0,0.1,0.2,0.1,0.2,0.2c-0.2,0.1-0.5,0-0.6,0.1l0.2,0.2c-0.2,0.1-0.4-0.1-0.5,0.2
	l0.1,0.1c-0.1,0.1-0.4,0-0.5,0.2c0,0.1,0.1,0.1,0.1,0.2c-0.2,0.1-0.5,0-0.6,0.2c0,0,0.1,0.1,0.1,0.2c-0.1,0.1-0.5,0-0.4,0.3
	c-0.4-0.1-0.4,0.3-0.8,0.2c-0.1,0.2-0.4,0-0.5,0.2c-0.1,0-0.3,0-0.4,0.1c0,0.3-0.3,0.1-0.2,0.4l0,0.1c-0.1,0-0.3,0.1-0.4,0.3
	c-0.7,0.2-1.3,0.6-1.9,1c-0.3,0.5-0.6,0.8-0.6,1.4c-0.1,0.6,0.3,1.2,0.5,1.6c-0.1,0-0.3,0-0.4,0c-0.2,0-0.4-0.1-0.6-0.1
	c-0.3-0.1-0.6-0.1-1-0.1c-0.9-0.2-1.9-0.1-2.8,0.1c-0.1,0.1-0.4,0.1-0.3,0.3c0.1,0.1-0.1,0.2,0,0.3c0.2,0.5,0.4,1,0.9,1.2
	c0,0.1,0.1,0.1,0.1,0.2c0.2,0.3,0.4,0.6,0.7,0.8c0.1,0.3,0.3,0.3,0.4,0.6c0.3,0.2,0.8,0.2,0.7,0.6c0,0.2,0.2,0.4,0.1,0.7
	c0.3,0.2,0.2,0.7,0.6,0.8c0.3,0.1,0.5,0,0.6-0.1l0,0l0.2-0.2c0.2-0.1,0.3-0.3,0.4-0.4c0.4-0.3,0.8-0.9,1.3-1.2l0.3-0.1
	c0,0,0.1,0,0.2-0.1c0.1,0,0.2,0,0.2,0c-0.2,0.5-0.5,1.3-0.2,1.8c0,0,0,0.1,0.1,0.1l0,0l0,0c0.1,0.1,0.1,0.1,0.2,0.2
	c0.3,0.2,0.6,0.4,1,0.4l0.1,0.1c1,0,1.8-0.6,2.6-1.1c0.2-0.1,0.3-0.3,0.4-0.5c0-0.1,0-0.2-0.1-0.3l0-0.1c0.3,0.1,0.6,0.1,1,0.2
	c0.6,0.1,1.3,0.2,2,0.4c1,0.1,1.8,0.3,2.9,0.1c-0.4,0.7-1.7,0.9-1.4,2c-0.2,0.2-0.1,0.4,0,0.6c0.3,0.3,0.7,0.1,1,0
	c0.2-0.2,0.5-0.3,0.8-0.5c0.4-0.4,0.7-0.7,1-1.2c0.4-0.5,0.8-0.8,1-1.4c1.9-0.1,3.2-1.4,4.8-2.1c1.1-0.7,2-1.5,3.1-2.1
	c0.4-0.6,1.1-0.7,1.5-1.2l0.8-0.6C1413.2,139.6,1413.2,139.5,1413.2,139.3L1413.2,139.3C1413.3,139.3,1413.3,139.3,1413.2,139.3z
	 M1389.9,141.8c-0.1,0.1-0.1,0.2-0.1,0.2s0,0,0,0L1389.9,141.8z M1389.2,138.8c-0.1,0.1-0.2,0.2-0.2,0.3l0,0
	C1389,138.9,1389.1,138.8,1389.2,138.8z M1388.9,139.1c0,0-0.1,0.1-0.1,0.1C1388.8,139.2,1388.9,139.2,1388.9,139.1
	C1388.9,139.1,1388.9,139.1,1388.9,139.1z M1388.7,139.4L1388.7,139.4c0,0.1-0.1,0.2-0.1,0.4
	C1388.7,139.7,1388.6,139.5,1388.7,139.4z M1388.6,139.9c0,0.1,0,0.1,0,0.2C1388.5,140.1,1388.5,140,1388.6,139.9z M1388.9,141.4
	c-0.2-0.4-0.4-0.8-0.3-1.2l0,0C1388.5,140.7,1388.7,141.1,1388.9,141.4C1388.9,141.4,1388.9,141.4,1388.9,141.4z M1389.2,141.8
	l-0.3-0.3c0,0,0.1,0,0.1-0.1c0.1,0.2,0.3,0.3,0.4,0.4C1389.3,141.9,1389.3,141.9,1389.2,141.8
	C1389.3,141.9,1389.2,141.9,1389.2,141.8z M1385.1,141.6c0.5-0.1,0.9,0,1.3,0l0.1,0.1c-1.1-0.2-2.2,0-2.6,0.1
	C1384.3,141.6,1384.8,141.7,1385.1,141.6z M1383.9,142l0.4,0.8h-0.1C1384,142.7,1383.9,142.4,1383.9,142L1383.9,142
	C1383.9,142.1,1383.9,142.1,1383.9,142z M1384.3,142.9C1384.3,142.9,1384.3,142.9,1384.3,142.9l0.3,0.4
	C1384.5,143.1,1384.3,143.1,1384.3,142.9z M1385.1,143.8l0.2,0.3l0,0C1385.3,144,1385.2,143.9,1385.1,143.8z M1385.6,144.3l0.2,0.2
	h0C1385.6,144.5,1385.6,144.4,1385.6,144.3z M1385.9,144.6l0.3,0.2C1386,144.8,1385.9,144.7,1385.9,144.6z M1386.7,145.5
	C1386.7,145.5,1386.8,145.5,1386.7,145.5l0.2,0.4l0,0C1386.8,145.8,1386.6,145.6,1386.7,145.5z M1386.8,146.2l0-0.2
	c0,0,0.1-0.1,0.1-0.1l0.1,0.5C1387,146.4,1386.9,146.3,1386.8,146.2z M1387.7,146.9c-0.2,0-0.4,0-0.6-0.2L1387.7,146.9L1387.7,146.9
	z M1390.8,145c0,0-0.5,0.6-0.5,1.3C1390.2,145.7,1390.4,145.2,1390.8,145z M1391.4,147.3c0.5,0.1,1.2,0,1.7-0.2
	C1392.6,147.4,1391.9,147.5,1391.4,147.3z M1397.1,145.9c0.5,0.1,1,0.1,1.4,0.2C1398,146.1,1397.5,146,1397.1,145.9z"/>
<path id="XMLID_76_" class="st3" d="M1471.1,297.1c0-0.1,0-0.3-0.1-0.4v0c0-0.2,0.1-0.5,0.3-0.6c0.1,0,0.2-0.1,0.3-0.1
	c-0.1-0.1-0.3-0.2-0.3-0.3c-0.1-0.2,0.2-0.4,0-0.5c2.1-1.8,3.9-4.1,6.2-5.5c1-0.6,2-1.1,3-1.6c1.8-0.8,3.6-1.8,5.7-1.9
	c0.2,0.2,0.7-0.2,0.8,0.3c0.2,0.1,0.5-0.2,0.6,0.1c0,0.1-0.1,0.1-0.2,0.3c0.2,0,0.4-0.2,0.6-0.1l-0.1,0.3c0.2,0.1,0.4-0.2,0.6,0
	l0,0.2c0.1,0,0.4-0.2,0.5,0c0,0.1,0,0.2-0.1,0.2c0.2,0,0.5-0.2,0.7,0c0,0.1,0,0.1,0,0.2c0.2,0,0.5-0.2,0.5,0.1
	c0.3-0.2,0.5,0.2,0.8,0c0.2,0.1,0.4-0.1,0.5,0.1c0.1,0,0.3-0.1,0.4,0c0,0.3,0.4,0,0.3,0.3l0.1,0c0.1,0,0.3,0.1,0.4,0.1
	c0.8-0.1,1.5,0.2,2.2,0.4c0.4,0.4,0.8,0.6,1.1,1.1c0.3,0.5,0.1,1.2,0,1.8c0.2,0,0.3-0.1,0.4-0.1c0.2-0.1,0.4-0.2,0.6-0.3
	c0.3-0.2,0.6-0.3,0.9-0.4c0.8-0.5,1.8-0.7,2.8-0.9c0.1,0,0.4-0.1,0.4,0.2c0,0.2,0.1,0.2,0.1,0.3c0,0.5-0.1,1.1-0.5,1.5
	c0,0.1,0,0.1-0.1,0.2c-0.1,0.4-0.2,0.7-0.4,1c0,0.3-0.2,0.4-0.2,0.7c-0.2,0.3-0.8,0.4-0.5,0.8c0.1,0.2-0.1,0.5,0.1,0.7
	c-0.2,0.3,0,0.7-0.3,0.9c-0.2,0.2-0.4,0.2-0.7,0.1l0,0l-0.3-0.1c-0.2-0.1-0.4-0.2-0.6-0.2c-0.6-0.2-1.1-0.6-1.7-0.7l-0.3,0
	c0,0-0.1,0-0.2,0c-0.1,0-0.2,0-0.3,0.1c0.4,0.4,0.9,1.1,0.8,1.8c0,0,0,0.1,0,0.1l0,0l0,0c0,0.1-0.1,0.2-0.1,0.2
	c-0.2,0.3-0.5,0.6-0.8,0.7l-0.1,0.1c-1.1,0.3-2,0-3-0.2c-0.2-0.1-0.4-0.2-0.5-0.4c-0.1-0.1-0.1-0.2,0-0.3l0-0.1
	c-0.3,0.1-0.6,0.3-1,0.5c-0.6,0.4-1.3,0.7-1.8,1c-1,0.4-1.7,0.9-2.9,1c0.6,0.6,2,0.4,2.1,1.5c0.3,0.1,0.3,0.4,0.2,0.6
	c-0.2,0.4-0.7,0.3-1,0.3c-0.3-0.1-0.6-0.1-0.9-0.2c-0.5-0.2-1-0.4-1.4-0.8c-0.5-0.4-1.1-0.5-1.5-1.1c-1.9,0.5-3.6-0.3-5.5-0.5
	c-1.3-0.3-2.5-0.8-3.8-1c-0.6-0.4-1.3-0.3-1.9-0.7l-1-0.3C1471.2,297.3,1471.1,297.2,1471.1,297.1l-0.1-0.1
	C1471.1,297.1,1471.1,297.1,1471.1,297.1z M1495.2,291.8c0.1,0.1,0.1,0.1,0.1,0.1s0,0,0,0L1495.2,291.8z M1494.9,288.7
	c0.1,0.1,0.2,0.1,0.3,0.2l0,0C1495.1,288.7,1495,288.7,1494.9,288.7z M1495.3,288.9c0,0,0.1,0.1,0.1,0.1
	C1495.4,289,1495.4,288.9,1495.3,288.9C1495.3,288.9,1495.3,288.9,1495.3,288.9z M1495.6,289.1L1495.6,289.1
	c0.1,0.1,0.2,0.2,0.2,0.3C1495.7,289.3,1495.7,289.2,1495.6,289.1z M1495.9,289.6c0,0.1,0.1,0.1,0.1,0.2
	C1496,289.7,1495.9,289.6,1495.9,289.6z M1496.1,291.1c0.1-0.4,0.2-0.9-0.1-1.3l0,0C1496.2,290.3,1496.2,290.8,1496.1,291.1
	C1496.1,291.1,1496.1,291.1,1496.1,291.1z M1495.9,291.7l0.2-0.4c0,0-0.1,0-0.1,0c-0.1,0.2-0.2,0.4-0.3,0.5
	C1495.8,291.7,1495.8,291.7,1495.9,291.7C1495.8,291.7,1495.9,291.7,1495.9,291.7z M1499.9,290c-0.5,0.1-0.9,0.3-1.3,0.4l0,0.1
	c1-0.6,2.2-0.7,2.6-0.7C1500.7,289.7,1500.3,290,1499.9,290z M1501.3,290.1l-0.2,0.9l0.1,0C1501.3,290.7,1501.4,290.5,1501.3,290.1
	l0,0.1C1501.3,290.2,1501.3,290.1,1501.3,290.1z M1501.1,291C1501.1,291,1501.1,291.1,1501.1,291l-0.2,0.5
	C1501.1,291.4,1501.2,291.2,1501.1,291z M1500.6,292.2l-0.1,0.3l0,0C1500.5,292.5,1500.6,292.4,1500.6,292.2z M1500.4,292.8
	l-0.1,0.3h0C1500.3,293,1500.3,292.9,1500.4,292.8z M1500.2,293.3l-0.2,0.3C1500,293.5,1500.1,293.4,1500.2,293.3z M1499.6,294.4
	C1499.6,294.4,1499.5,294.4,1499.6,294.4l-0.1,0.4l0.1,0C1499.6,294.7,1499.7,294.5,1499.6,294.4z M1499.7,295.1l0-0.2
	c0,0-0.1,0-0.1,0l0,0.5C1499.6,295.3,1499.7,295.2,1499.7,295.1z M1499,296c0.2-0.1,0.4-0.1,0.5-0.3L1499,296L1499,296z
	 M1495.4,295.2c0,0,0.7,0.4,0.9,1.1C1496.2,295.8,1495.9,295.4,1495.4,295.2z M1495.5,297.7c-0.5,0.3-1.2,0.4-1.8,0.4
	C1494.3,298.1,1495.1,298.1,1495.5,297.7z M1489.4,298.2c-0.5,0.2-1,0.4-1.4,0.6C1488.5,298.7,1488.9,298.4,1489.4,298.2z"/>
<path id="XMLID_88_" class="st3" d="M1523.4,73.2c-0.3,0.2-2.5,0.9-2.5,0.9s0-1.8-0.9-2.6c-0.9-0.8-1.7-1.3-1.1-1.4s1.4-0.2,1.8-0.1
	c0.4,0.2,0.9,0.7,1.5,1.3C1522.8,72.1,1523.4,73.2,1523.4,73.2L1523.4,73.2z M1520.2,162.9c2.5-1,7.2-2.6,11.3-4
	c1,3.5,3.4,10.8,5.2,13.3c2.4,3.3,3.3,5,7.1,3.7c3.8-1.3,20-8.6,20-8.6s1.3-0.3,2-0.4c0.7-0.2,3.1-1.6,3.8-1.5
	c0.7,0.1,1.4,0.4,2.3,1c0.9,0.5,2.1,1.2,3.9,2c1.8,0.8,7.1,4.7,7.5,5.5c2.7,4.7,6.4,12.2,7.3,11.7c0.9-0.4,10.6-14,9.3-15
	c-12.6-9.7-22.5-10.8-23.3-13c-0.8-2.2-2.4-4.1-3.7-4.5s-1.9-0.1-2.7,0.4c-0.8,0.5-1.6,1.9-1.9,2.5c-0.3,0.7-1.2,2.4-1.7,2.6
	c-0.5,0.2-1.9,1.4-1.9,1.2c0-0.2-0.5-1.5-0.9-1.5c-0.3,0-0.5,0.3-0.6,0.7c-0.1,0.3-0.3,1-0.8,1c-0.3,0-2.6,0.3-5.1,0.6
	c-2.1-1.3-4.4-2.9-5.2-3.9c-1.6-1.9-1.6-1.6-1.8-3.3c-0.2-1.7-1.4-2.5-1.9-4.1s-1.7-2.8-2.6-3.1c-0.9-0.3-1.3,0-1.9,0.3
	c-0.1,0.1-0.2,0.1-0.3,0.2c-0.3-3.3-0.7-6.3-0.8-7c-0.4-1.6-0.3-1.8-0.3-1.8s4,0.9,7.1-1.1c3.1-1.9,4.9-4.5,4.9-4.5
	s-7.8-28.4-7.8-28.6c0.1-0.2,0.7-0.4,1-0.9c0.3-0.5-0.5-5-0.9-5.7c-0.4-0.7-0.1-0.7-0.5-0.8c-0.4-0.1-1.7-0.1-1.7-0.1l-1.4-5.4
	c0,0,0.3-3.8-1.7-6.3c-2.1-2.4-3.6-3.3-3.6-3.3s-3.2-2.5-4.6-2.9s-2.2-1-2.2-1s-0.3-1-0.5-1.3c-0.2-0.2,0.1,0-0.5-0.8
	s-0.5-0.9-1-1.1c-0.5-0.2-0.9-0.2-0.9-0.2s-0.5-1-1-1.4c-0.4-0.4-0.5-0.3-0.5-0.3s0.5-0.5-0.1-0.7c-0.5-0.2-1.4-0.2-1.4-0.2
	s-2-1.7-3-1.9c-1.1-0.2-2-1.1-3.3-0.9c-1.3,0.1-1.7,0.2-1.7,0.2s-1.3-1.1-3.2-1.4c-1.9-0.3-3.3-0.1-3.3-0.1s-4.8-0.1-7.1,1.9
	c-2.2,1.9-2.3,4.8-2.6,5.6c-0.4,0.8-0.5,2.2-0.5,2.2s-1.2,0-1.5,0.1c-0.3,0.1-1.2,3.5-1.3,4.1c-0.1,0.7-0.5,1.2,0.1,1.3
	c0.6,0.1,1.3,0.5,1.3,0.5s-0.7,0.8-0.5,1.2c0.2,0.4,0.9,0.6,1,1s-0.3,0.9-0.3,0.9c-0.2-0.1-0.7-0.2-0.7-0.2s-0.3-0.5-0.4-0.6
	c-0.1,0-0.6,0.1-0.6,0.1l-0.3,0.6l-0.7,0.5c0,0,0-0.1-0.9-0.2c-1-0.1-1.5,0-1.5,0s0.5-1,0.6-1s0.8-0.1,1.4-0.3
	c0.6-0.2,1.2-0.6,1.2-0.8c0-0.2,0.1-0.5-0.2-0.5c-0.3,0-3,0.7-3.5,0.8c-0.4,0.1-0.9,0.4-1.1,0.7c-0.2,0.3-0.4,1.5-0.4,1.5
	s-0.5,0.5-0.7,0.7c-0.1,0.2-0.2,0.6-0.2,0.6s-0.3,0.5-0.5,0.7c-0.1,0.2-0.2,0.7-0.2,0.7l0.2,0.4c0,0-0.4,0.5-0.4,0.8
	s0.1,0.8,0.2,1.1c0.1,0.3,0,1.5-0.1,2.4c-0.1,0.9-1.8,9.7-2.5,13.4s-0.8,7.9-0.1,8.7c0.6,0.8,2.9,0.5,3.3,0.5c0.4,0,0.6,0,0.6,0
	l3.8,1.4c0,0,0.4,0.7,1,0.8c0.6,0.1,2.1,0,2.1,0l0.2,1.2c0,0-5,3.4-5.1,3.7c-0.1,0.3,0.3,2.5,1.3,3.8c1.1,1.3,1.9,1.8,2.3,1.6
	s0.8-1,0.8-1s2.6-0.9,2.6-1.3s-0.6-2.3-1-2.6s-1.3,0.2-1.3,0.2l-0.5-0.9c0,0,2.7-1.7,3.4-2c0.7-0.3,0.7-0.7,1-0.7s0.6,0.2,0.6,0.7
	c0.1,0.6-0.3,3.8-0.1,4c0.2,0.2-0.5,0.7-0.7,1c-0.2,0.4-0.4,1.3,0.1,1.1c0.6-0.2,1.1-0.5,1.3-0.2c0.2,0.3,0.5,1.5,0.5,1.5
	s-0.9,1.2-1.1,1.5c-0.3,0.3-1.1,0.8-1,1.5c0.1,0.7,0.6,1.6,1.1,1.2c0.5-0.4,1.3-0.5,1.3-0.5s-0.9,1.9-0.4,2.4
	c0.4,0.4,1.1,0.7,1.4,0.2c0.3-0.5,0.5-0.5,0.5-0.5s0.3,1.3,0.7,1.2c0.4-0.1,0.5-0.4,0.8-0.4c0.3,0,0.4-0.1,0.7,0.1
	c0.4,0.2,0.4,0.7,0.7,0.8c0.3,0.2,0.8-0.1,0.9-0.4c0.1-0.4,0-0.4,0.4-0.8c0.4-0.4,0.2-0.7,0.7-0.5c0.5,0.3,0.6,0.2,0.4,0.9
	c-0.2,0.7-2.4,4.2-2.4,4.2s-2.9,1.1-3.6,2.1c-0.6,1-3.5,6.9-3.2,7.7c0.2,0.8,1,2.8,2.6,2.8c1.6,0,3.1-1.5,3.1-1.5l1.7-3.1
	c0,0,2-4.2,1.8-4.6c-0.2-0.4-0.6-2.1-0.5-2.3c0.1-0.3,1.6-5.3,2.1-4.9c0.5,0.4,1.5,1.3,1.4,2.5c-0.1,1.2-4.1,10.6-4.8,14.7
	c-0.7,4-1.4,7.2-1.4,7.2s-0.2,1.7,0.5,2.9c0.6,1.3,0.9,2.2,5.1,1.9C1516.7,165.1,1518.8,163.9,1520.2,162.9L1520.2,162.9z
	 M1544.4,155.1c0.2,0.1,0.4,0.2,0.6,0.4c0.6,0.4,1.4,0.9,2.7,1.4c1.3,0.5,4.7,3.4,5.2,3.8c0.1,0.1,0.3,0.4,0.5,0.7
	c-0.6,0.2-1.1,0.3-1.5,0.5c-2.4,1.1-6.1,3.3-6.5,3s-1-8-1-8S1544.5,156.2,1544.4,155.1L1544.4,155.1z M1523.5,88.3
	c0,0,1.2,0.2,1.4-0.1c0.2-0.2,0.4-0.1,0.5-1c0.2-0.9,0.2-1.6,0.7-2.2c0.5-0.6,0.4-1.9,0.3-2.4c-0.1-0.5-0.5-1.9-0.5-1.9l-2.3,0.2
	c0,0-0.4-2.7-0.2-2.9s1.6-0.5,1.6-0.5l-0.6-2.9c0,0-2.2,0.3-2.6,0.6c-0.4,0.3-0.3,0.3-0.3,0.7c0,0.4-0.4,2-0.7,3.3
	c-0.3,1.3-1.9,3.7-2,4.1c-0.2,0.4,0.2,1.6,0.3,2.3c0.1,0.7,0.1,1.2,0.6,1.9C1520,88.2,1522.7,88.4,1523.5,88.3L1523.5,88.3z
	 M1502.3,92.4L1502.3,92.4L1502.3,92.4L1502.3,92.4z M1505.1,92.5c0,0.3-2.2,2.2-3,3.5c-0.8,1.3-1,0.8-2,1.5c-1,0.7-1.9,3-2.3,4.7
	c-0.4,1.7-3.8,3.6-3.8,3.6s-0.7-6-0.4-6.7s1.8-5,1.8-5s0.4,0.1,0.6,0.3c0.2,0.3,1.3,1.5,1.8,1.3c0.5-0.2,0.8-0.4,0.8-0.4
	s0.5-0.2,1-0.2c0.4,0,1.6-0.3,1.8-0.7c0.3-0.4,0.9-2,0.9-2.1c0,0,0.4,0,1.1,0c0.7,0,1-0.3,1.4-0.3
	C1505.1,92.1,1505.1,92.2,1505.1,92.5L1505.1,92.5z M1523,154.2c0,0,3.5-4.8,4-5.3c0,0.1,0.9,0.5,1.4,1.2c0.5,0.6,0.9,2.2,1,2.5
	C1529.6,152.9,1523,154.2,1523,154.2L1523,154.2z M1501.4,117.8c0,0,1.7-1.3,2.3-1.5c0,0,0,0.9,0,1.6c0.1,0.7,0,1.3-0.1,1.8
	c0,0.4-0.3,0.4-0.6,0.3c-0.3-0.1-0.9-0.3-0.9-0.6C1502,119.2,1501.4,117.8,1501.4,117.8L1501.4,117.8z M1495.5,113.9
	c0.8-0.7,2.8-2.5,4.1-3.4s3.4-3,3.4-3s-0.3,1.3-0.6,2.2c-0.3,0.9-0.9,2.9-0.7,3.5c0.3,0.6-0.4,0.8-1.7,1.6c-1.3,0.8-3.9,1.6-4.1,1.8
	c-0.2,0.2-2-0.6-2.2-0.8C1493.8,115.9,1494.7,114.6,1495.5,113.9z"/>
<g id="XMLID_20_">
	<g id="XMLID_25_">
		<path id="XMLID_26_" class="st3" d="M1775.4,337c-1.7,0-3-1.4-3-3c0-6.3,3.3-9.6,5.9-12.3c2.4-2.4,4.2-4.2,4.2-8s-1.7-5.6-4.2-8
			c-2.6-2.7-5.9-5.9-5.9-12.3c0-6.3,3.3-9.6,5.9-12.3c2.4-2.4,4.2-4.2,4.2-8c0-3.8-1.7-5.6-4.2-8c-2.6-2.7-5.9-5.9-5.9-12.3
			c0-6.3,3.3-9.6,5.9-12.3c2.4-2.4,4.2-4.2,4.2-8c0-1.7,1.4-3,3-3c1.7,0,3,1.4,3,3c0,6.3-3.3,9.6-5.9,12.3c-2.4,2.4-4.2,4.2-4.2,8
			s1.7,5.6,4.2,8c2.6,2.7,5.9,5.9,5.9,12.3c0,6.3-3.3,9.6-5.9,12.3c-2.4,2.4-4.2,4.2-4.2,8s1.7,5.6,4.2,8c2.6,2.7,5.9,5.9,5.9,12.3
			c0,6.3-3.3,9.6-5.9,12.3c-2.4,2.4-4.2,4.2-4.2,8C1778.5,335.6,1777.1,337,1775.4,337z"/>
	</g>
	<g id="XMLID_23_">
		<path id="XMLID_24_" class="st3" d="M1757.7,337c-1.7,0-3-1.4-3-3c0-6.3,3.3-9.6,5.9-12.3c2.4-2.4,4.2-4.2,4.2-8s-1.7-5.6-4.2-8
			c-2.6-2.7-5.9-5.9-5.9-12.3c0-6.3,3.3-9.6,5.9-12.3c2.4-2.4,4.2-4.2,4.2-8c0-3.8-1.7-5.6-4.2-8c-2.6-2.7-5.9-5.9-5.9-12.3
			c0-6.3,3.3-9.6,5.9-12.3c2.4-2.4,4.2-4.2,4.2-8c0-1.7,1.4-3,3-3c1.7,0,3,1.4,3,3c0,6.3-3.3,9.6-5.9,12.3c-2.4,2.4-4.2,4.2-4.2,8
			s1.7,5.6,4.2,8c2.6,2.7,5.9,5.9,5.9,12.3c0,6.3-3.3,9.6-5.9,12.3c-2.4,2.4-4.2,4.2-4.2,8s1.7,5.6,4.2,8c2.6,2.7,5.9,5.9,5.9,12.3
			c0,6.3-3.3,9.6-5.9,12.3c-2.4,2.4-4.2,4.2-4.2,8C1760.7,335.6,1759.4,337,1757.7,337z"/>
	</g>
	<g id="XMLID_21_">
		<path id="XMLID_22_" class="st3" d="M1741,337c-1.7,0-3-1.4-3-3c0-6.3,3.3-9.6,5.9-12.3c2.4-2.4,4.2-4.2,4.2-8s-1.7-5.6-4.2-8
			c-2.6-2.7-5.9-5.9-5.9-12.3c0-6.3,3.3-9.6,5.9-12.3c2.4-2.4,4.2-4.2,4.2-8c0-3.8-1.7-5.6-4.2-8c-2.6-2.7-5.9-5.9-5.9-12.3
			c0-6.3,3.3-9.6,5.9-12.3c2.4-2.4,4.2-4.2,4.2-8c0-1.7,1.4-3,3-3c1.7,0,3,1.4,3,3c0,6.3-3.3,9.6-5.9,12.3c-2.4,2.4-4.2,4.2-4.2,8
			s1.7,5.6,4.2,8c2.6,2.7,5.9,5.9,5.9,12.3c0,6.3-3.3,9.6-5.9,12.3c-2.4,2.4-4.2,4.2-4.2,8s1.7,5.6,4.2,8c2.6,2.7,5.9,5.9,5.9,12.3
			c0,6.3-3.3,9.6-5.9,12.3c-2.4,2.4-4.2,4.2-4.2,8C1744,335.6,1742.6,337,1741,337z"/>
	</g>
</g>
<g id="XMLID_13_">
	<g id="XMLID_18_">
		<path id="XMLID_19_" class="st3" d="M1822.8,337c-0.7,0-1.2-0.5-1.2-1.2c0-3.2,0.6-4.8,1.3-6.4c0.6-1.4,1.1-2.8,1.1-5.5
			c0-2.7-0.5-4.1-1.1-5.5c-0.6-1.6-1.3-3.2-1.3-6.4c0-3.2,0.6-4.8,1.3-6.4c0.6-1.4,1.1-2.8,1.1-5.5c0-2.7-0.5-4.1-1.1-5.5
			c-0.6-1.6-1.3-3.2-1.3-6.4c0-3.2,0.6-4.8,1.3-6.4c0.6-1.4,1.1-2.8,1.1-5.5c0-0.7,0.5-1.2,1.2-1.2c0.7,0,1.2,0.5,1.2,1.2
			c0,3.2-0.6,4.8-1.3,6.4c-0.6,1.4-1.1,2.8-1.1,5.5c0,2.7,0.5,4.1,1.1,5.5c0.6,1.6,1.3,3.2,1.3,6.4c0,3.2-0.6,4.8-1.3,6.4
			c-0.6,1.4-1.1,2.8-1.1,5.5s0.5,4.1,1.1,5.5c0.6,1.6,1.3,3.2,1.3,6.4c0,3.2-0.6,4.8-1.3,6.4c-0.6,1.4-1.1,2.8-1.1,5.5
			C1824,336.5,1823.5,337,1822.8,337z"/>
	</g>
	<path id="XMLID_17_" class="st3" d="M1821.3,282.1c1.5,1.7,0.8,4.7,0.8,4.7s-3.1,0.3-4.6-1.4c-1.5-1.7-0.8-4.7-0.8-4.7
		S1819.8,280.4,1821.3,282.1z"/>
	<path id="XMLID_16_" class="st3" d="M1826,293.2c-1.5,1.7-0.8,4.7-0.8,4.7s3.1,0.3,4.6-1.4c1.5-1.7,0.8-4.7,0.8-4.7
		S1827.5,291.5,1826,293.2z"/>
	<path id="XMLID_15_" class="st3" d="M1821.3,308.9c1.5,1.7,0.8,4.7,0.8,4.7s-3.1,0.3-4.6-1.4c-1.5-1.7-0.8-4.7-0.8-4.7
		S1819.8,307.2,1821.3,308.9z"/>
	<path id="XMLID_14_" class="st3" d="M1826,320c-1.5,1.7-0.8,4.7-0.8,4.7s3.1,0.3,4.6-1.4c1.5-1.7,0.8-4.7,0.8-4.7
		S1827.5,318.3,1826,320z"/>
</g>
<g id="XMLID_6_">
	<path id="XMLID_12_" class="st3" d="M1337.6,285.3l-6.9,6.9v-25.8l8.8-8.8c0.5-0.5,0.5-1.4,0-1.9c-0.5-0.5-1.4-0.5-1.9,0l-6.9,6.9
		v-20.4c0-0.8-0.6-1.4-1.4-1.4c-0.8,0-1.4,0.6-1.4,1.4v38.5l-6.6-6.6c-0.5-0.5-1.4-0.5-1.9,0c-0.5,0.5-0.5,1.4,0,1.9l8.5,8.5v21.3
		l-7.4-7.4c-0.5-0.5-1.4-0.5-1.9,0c-0.5,0.5-0.5,1.4,0,1.9l9.3,9.3v26.7c0,0.8,0.6,1.4,1.4,1.4c0.8,0,1.4-0.6,1.4-1.4V296l8.8-8.8
		c0.5-0.5,0.5-1.4,0-1.9C1339,284.8,1338.2,284.8,1337.6,285.3z"/>
	<path id="XMLID_11_" class="st3" d="M1322.1,298.2c0,2.3-1.8,4.1-4.1,4.1s-4.1-1.8-4.1-4.1c0-2.3,1.8-4.1,4.1-4.1
		C1320.2,294.1,1322.1,296,1322.1,298.2z"/>
	<path id="XMLID_10_" class="st3" d="M1322.1,273c0,2.3-1.8,4.1-4.1,4.1s-4.1-1.8-4.1-4.1s1.8-4.1,4.1-4.1
		C1320.2,268.9,1322.1,270.7,1322.1,273z"/>
	<path id="XMLID_9_" class="st3" d="M1344.5,284.7c0,2.3-1.8,4.1-4.1,4.1c-2.3,0-4.1-1.8-4.1-4.1c0-2.3,1.8-4.1,4.1-4.1
		C1342.7,280.6,1344.5,282.5,1344.5,284.7z"/>
	<path id="XMLID_8_" class="st3" d="M1344.5,255.4c0,2.3-1.8,4.1-4.1,4.1c-2.3,0-4.1-1.8-4.1-4.1c0-2.3,1.8-4.1,4.1-4.1
		C1342.7,251.3,1344.5,253.2,1344.5,255.4z"/>
	<path id="XMLID_7_" class="st3" d="M1333.4,238.7c0,2.3-1.8,4.1-4.1,4.1c-2.3,0-4.1-1.8-4.1-4.1c0-2.3,1.8-4.1,4.1-4.1
		C1331.6,234.7,1333.4,236.5,1333.4,238.7z"/>
</g>
<g id="XMLID_45_">
	<path id="XMLID_51_" class="st3" d="M1604,285.3l-6.9,6.9v-25.8l8.8-8.8c0.5-0.5,0.5-1.4,0-1.9c-0.5-0.5-1.4-0.5-1.9,0l-6.9,6.9
		v-20.4c0-0.8-0.6-1.4-1.4-1.4c-0.8,0-1.4,0.6-1.4,1.4v38.5l-6.6-6.6c-0.5-0.5-1.4-0.5-1.9,0c-0.5,0.5-0.5,1.4,0,1.9l8.5,8.5v21.3
		l-7.4-7.4c-0.5-0.5-1.4-0.5-1.9,0c-0.5,0.5-0.5,1.4,0,1.9l9.3,9.3v26.7c0,0.8,0.6,1.4,1.4,1.4c0.8,0,1.4-0.6,1.4-1.4V296l8.8-8.8
		c0.5-0.5,0.5-1.4,0-1.9C1605.4,284.8,1604.5,284.8,1604,285.3z"/>
	<path id="XMLID_50_" class="st3" d="M1588.4,298.2c0,2.3-1.8,4.1-4.1,4.1c-2.3,0-4.1-1.8-4.1-4.1c0-2.3,1.8-4.1,4.1-4.1
		C1586.6,294.1,1588.4,296,1588.4,298.2z"/>
	<path id="XMLID_49_" class="st3" d="M1588.4,273c0,2.3-1.8,4.1-4.1,4.1c-2.3,0-4.1-1.8-4.1-4.1s1.8-4.1,4.1-4.1
		C1586.6,268.9,1588.4,270.7,1588.4,273z"/>
	<path id="XMLID_48_" class="st3" d="M1610.8,284.7c0,2.3-1.8,4.1-4.1,4.1c-2.3,0-4.1-1.8-4.1-4.1c0-2.3,1.8-4.1,4.1-4.1
		C1609,280.6,1610.8,282.5,1610.8,284.7z"/>
	<path id="XMLID_47_" class="st3" d="M1610.8,255.4c0,2.3-1.8,4.1-4.1,4.1c-2.3,0-4.1-1.8-4.1-4.1c0-2.3,1.8-4.1,4.1-4.1
		C1609,251.3,1610.8,253.2,1610.8,255.4z"/>
	<path id="XMLID_46_" class="st3" d="M1599.8,238.7c0,2.3-1.8,4.1-4.1,4.1c-2.3,0-4.1-1.8-4.1-4.1c0-2.3,1.8-4.1,4.1-4.1
		C1598,234.7,1599.8,236.5,1599.8,238.7z"/>
</g>
<g id="XMLID_1_">
	<g id="XMLID_4_">
		<path id="XMLID_5_" class="st3" d="M1266.8,337c-1.6,0-2.8-1.3-2.8-2.8c0-7.6,1.5-11.4,3-15.2c1.4-3.4,2.6-6.5,2.6-13
			c0-6.5-1.3-9.7-2.6-13c-1.5-3.7-3-7.6-3-15.2s1.5-11.4,3-15.2c1.4-3.4,2.6-6.5,2.6-13c0-6.5-1.3-9.7-2.6-13c-1.5-3.7-3-7.6-3-15.2
			s1.5-11.4,3-15.2c1.4-3.4,2.6-6.5,2.6-13c0-1.6,1.3-2.8,2.8-2.8c1.6,0,2.8,1.3,2.8,2.8c0,7.6-1.5,11.5-3,15.2
			c-1.4,3.4-2.6,6.5-2.6,13c0,6.5,1.3,9.7,2.6,13c1.5,3.7,3,7.6,3,15.2c0,7.6-1.5,11.4-3,15.2c-1.4,3.4-2.6,6.5-2.6,13
			c0,6.5,1.3,9.7,2.6,13c1.5,3.7,3,7.6,3,15.2c0,7.6-1.5,11.4-3,15.2c-1.4,3.4-2.6,6.5-2.6,13C1269.6,335.7,1268.3,337,1266.8,337z"
			/>
	</g>
	<g id="XMLID_2_">
		<path id="XMLID_3_" class="st3" d="M1284.6,337c-1.6,0-2.8-1.3-2.8-2.8c0-7.6,1.5-11.4,3-15.2c1.4-3.4,2.6-6.5,2.6-13
			c0-6.5-1.3-9.7-2.6-13c-1.5-3.7-3-7.6-3-15.2s1.5-11.4,3-15.2c1.4-3.4,2.6-6.5,2.6-13c0-6.5-1.3-9.7-2.6-13c-1.5-3.7-3-7.6-3-15.2
			s1.5-11.4,3-15.2c1.4-3.4,2.6-6.5,2.6-13c0-1.6,1.3-2.8,2.8-2.8s2.8,1.3,2.8,2.8c0,7.6-1.5,11.5-3,15.2c-1.4,3.4-2.6,6.5-2.6,13
			c0,6.5,1.3,9.7,2.6,13c1.5,3.7,3,7.6,3,15.2c0,7.6-1.5,11.4-3,15.2c-1.4,3.4-2.6,6.5-2.6,13c0,6.5,1.3,9.7,2.6,13
			c1.5,3.7,3,7.6,3,15.2c0,7.6-1.5,11.4-3,15.2c-1.4,3.4-2.6,6.5-2.6,13C1287.5,335.7,1286.2,337,1284.6,337z"/>
	</g>
</g>
<g>
	<g id="XMLID_32_">
		<g id="XMLID_40_">
			<g id="XMLID_43_">
				<g id="XMLID_57_">
					<g id="XMLID_60_">
						<circle class="st3" cx="1662.3" cy="194.2" r="5.3"/>
					</g>
					<g id="XMLID_59_">
						<circle class="st3" cx="1685.4" cy="217.4" r="5.3"/>
					</g>
					<g id="XMLID_58_">
						
							<rect x="1660.2" y="203" transform="matrix(-0.7065 -0.7077 0.7077 -0.7065 2710.8398 1535.822)" class="st3" width="27.4" height="5.7"/>
					</g>
				</g>
			</g>
			<g id="XMLID_42_">
				<g id="XMLID_56_">
					<g id="XMLID_61_">
						<path class="st3" d="M1680,199.7c-3.3-3.3-3.3-8.6,0-11.9c3.3-3.3,8.6-3.3,11.9,0c3.3,3.3,3.3,8.6,0,11.9
							C1688.6,203,1683.3,203,1680,199.7z M1689,190.7c-1.7-1.7-4.4-1.7-6.1,0c-1.7,1.7-1.7,4.4,0,6.1c1.7,1.7,4.4,1.7,6.1,0
							C1690.7,195.1,1690.7,192.4,1689,190.7z"/>
					</g>
				</g>
			</g>
			<g id="XMLID_41_">
				<path class="st3" d="M1672.3,253.4l5.8-8.6c0.5-0.7,0.2-1.4-0.6-1.5l-10.2-2.1c-0.8-0.2-1.2,0.3-0.9,1.1l1.4,3.5
					c-3.2,1.5-13,5.3-17.2-1.7c-2.7-4.5-0.9-8.5,1.8-11.8l31.3-31.3l-5-5l-31.3,31.3c-3.2,2.6-7.3,4.5-11.8,1.8
					c-7-4.2-3.2-14-1.7-17.2l3.5,1.4c0.8,0.3,1.2-0.1,1.1-0.9l-2.1-10.2c-0.2-0.8-0.8-1.1-1.5-0.6l-8.6,5.8
					c-0.7,0.5-0.6,1.1,0.1,1.4l3.4,1.4c-7,10.5-1.6,22.8,1.3,26.8c2.9,4.2,3.5,8.1,3.5,8.1s4,0.6,8.1,3.5c4.1,2.9,16.4,8.3,26.8,1.3
					l1.4,3.4C1671.2,254,1671.9,254.1,1672.3,253.4z"/>
			</g>
		</g>
		<g id="XMLID_33_">
			<g id="XMLID_38_">
				<g id="XMLID_39_">
					<path class="st3" d="M1690.3,191.4c-0.8-0.5-1.6-1-2.4-1.6c-1.6,4.1,0.2,7.2,0.2,7.3c0,0.1,0.1,0.1,0.1,0.2
						c0.4,0.5,1.2,0.7,1.8,0.3c0.7-0.4,0.9-1.2,0.5-1.9C1690.5,195.6,1689.5,193.9,1690.3,191.4z"/>
				</g>
			</g>
			<g id="XMLID_35_">
				<g id="XMLID_37_">
					<path class="st3" d="M1703.8,173.8c0,1.7-2.2,3.7-5.1,5.6v3.4c4.4-2.9,7.9-5.6,7.9-9c0-3.9-3.8-6.6-7.9-8.8c0,1.1,0,2.2,0,3.3
						C1701.5,169.9,1703.8,171.7,1703.8,173.8z"/>
				</g>
				<g id="XMLID_36_">
					<path class="st3" d="M1692,188.2c1.8-1.9,4.2-3.7,6.8-5.4c0.1-0.6,0.2-1.2,0.3-1.8v-1.7c-3.7,2.3-7.4,4.9-9.9,7.9
						C1690,187.8,1690.9,188.1,1692,188.2z"/>
				</g>
			</g>
			<g id="XMLID_34_">
				<path class="st3" d="M1699.6,168.6v-3.3c-1.5-1.1-2.6-3.7-2.6-6.6c0-4.4,5.7-6.8,5.7-6.8c0.7-0.3,1.1-1.1,0.8-1.8
					c-0.3-0.7-2.3-0.8-3-0.6c-0.3,0.1-6.3,2.9-6.3,9.2C1694.1,163.6,1696.5,166.8,1699.6,168.6z"/>
			</g>
		</g>
	</g>
	<g id="XMLID_31_">
		<path class="st3" d="M1701.4,152.4l-1.2-2.8c0.1-0.1,12.5-5.3,24.8-15.4c11.2-9.2,24.6-24.4,24.7-44.8c0.1-9.5,2.2-18.2,6.3-25.8
			c3.3-6.1,7.9-11.4,13.6-15.9c9.7-7.7,19.3-10.2,19.7-10.3l0.8,3c-0.1,0-9.4,2.5-18.6,9.8c-12.3,9.7-18.6,22.9-18.7,39.2
			c-0.1,9.6-2.8,18.8-8.2,27.6c-4.3,6.9-10.2,13.5-17.7,19.6C1714.3,147,1701.9,152.2,1701.4,152.4z M1700.8,151l-0.6-1.4
			c0,0,0,0,0,0L1700.8,151z"/>
	</g>
</g>
</svg>
